<svg width="930" height="409" viewBox="0 0 1144 409" fill="none" xmlns="http://www.w3.org/2000/svg">
<path d="M497.563 120.43C495.188 120.869 492.774 118.709 492.16 115.514C491.564 112.416 492.991 109.445 495.366 109.006C497.741 108.566 500.154 110.726 500.769 113.921C501.383 117.116 499.938 119.99 497.563 120.43Z" fill="url(#paint0_linear_128_9561)"/>
<path d="M295.797 395.801C293.348 396.254 290.842 394.011 290.228 390.816C289.613 387.622 291.114 384.637 293.563 384.183C296.012 383.73 298.519 385.973 299.133 389.168C299.747 392.363 298.246 395.347 295.797 395.801Z" fill="url(#paint1_linear_128_9561)"/>
<path opacity="0.7925" d="M585.977 411.313C583.523 411.761 581.012 409.519 580.395 406.331C579.779 403.144 581.282 400.17 583.736 399.722C586.189 399.275 588.701 401.517 589.317 404.704C589.933 407.892 588.43 410.866 585.977 411.313Z" fill="url(#paint2_linear_128_9561)"/>
<path opacity="0.7019" d="M371.33 310.081C368.802 310.542 366.272 308.203 365.656 305.016C365.021 301.732 366.524 298.758 369.052 298.297C371.579 297.836 374.091 300.078 374.726 303.362C375.435 306.633 373.858 309.62 371.33 310.081Z" fill="url(#paint3_linear_128_9561)"/>
<path opacity="0.6709" d="M917.789 9.97323C915.261 10.4341 912.657 8.10913 912.022 4.82501C911.387 1.54089 912.945 -1.5433 915.473 -2.00418C918.001 -2.46505 920.606 -0.139956 921.241 3.14417C921.876 6.42829 920.317 9.51236 917.789 9.97323Z" fill="url(#paint4_linear_128_9561)"/>
<path opacity="0.8044" d="M660.517 386.286C657.915 386.761 655.385 384.422 654.731 381.041C654.077 377.66 655.636 374.576 658.164 374.115C660.766 373.64 663.297 375.979 663.95 379.36C664.678 382.727 663.12 385.812 660.517 386.286Z" fill="url(#paint5_linear_128_9561)"/>
<path opacity="0.7591" d="M895.351 121.393C892.749 121.867 890.145 119.542 889.491 116.162C888.837 112.781 890.396 109.697 892.998 109.222C895.6 108.748 898.205 111.073 898.859 114.454C899.512 117.834 897.879 120.932 895.351 121.393Z" fill="url(#paint6_linear_128_9561)"/>
<path opacity="0.6482" d="M810.482 346.106C807.806 346.594 805.182 344.173 804.529 340.792C803.856 337.314 805.49 334.217 808.092 333.742C810.768 333.254 813.391 335.676 814.045 339.057C814.773 342.424 813.159 345.618 810.482 346.106Z" fill="url(#paint7_linear_128_9561)"/>
<path d="M3.56869 153.181C3.43943 154.106 3.4029 155.115 3.60756 156.179C4.29596 159.759 7.09809 162.346 9.91684 161.824C12.6614 161.316 14.4028 157.988 13.6958 154.312C13.4911 153.248 13.0825 152.321 12.6183 151.506L3.56869 153.181Z" fill="url(#paint8_linear_128_9561)"/>
<path d="M548.626 182.096C545.806 182.618 542.928 180.043 542.22 176.364C541.513 172.685 543.236 169.258 546.056 168.736C548.876 168.214 551.754 170.79 552.461 174.468C553.169 178.147 551.446 181.574 548.626 182.096Z" fill="url(#paint9_linear_128_9561)"/>
<path d="M784.387 121.21C781.493 121.745 778.523 119.087 777.796 115.311C777.07 111.536 778.849 107.998 781.744 107.462C784.638 106.927 787.608 109.585 788.334 113.361C789.06 117.136 787.356 120.66 784.387 121.21Z" fill="url(#paint10_linear_128_9561)"/>
<path d="M150.348 219.895C147.38 220.445 144.409 217.786 143.665 213.914C142.92 210.041 144.699 206.504 147.667 205.954C150.636 205.405 153.606 208.063 154.351 211.936C155.096 215.808 153.242 219.36 150.348 219.895Z" fill="url(#paint11_linear_128_9561)"/>
<path d="M418.29 257.175C415.247 257.738 412.109 255.01 411.328 250.944C410.564 246.975 412.38 243.23 415.497 242.653C418.54 242.09 421.677 244.818 422.459 248.884C423.148 252.867 421.332 256.612 418.29 257.175Z" fill="url(#paint12_linear_128_9561)"/>
<path d="M93.9185 336.081C90.8017 336.658 87.7197 333.82 86.9563 329.85C86.1743 325.784 88.0645 322.026 91.1072 321.462C94.224 320.885 97.306 323.724 98.088 327.79C98.8514 331.759 97.0354 335.504 93.9185 336.081Z" fill="url(#paint13_linear_128_9561)"/>
<path d="M670.423 206.484C667.306 207.061 664.075 204.25 663.275 200.087C662.493 196.021 664.364 192.165 667.555 191.574C670.672 190.998 673.903 193.808 674.703 197.971C675.43 202.148 673.539 205.907 670.423 206.484Z" fill="url(#paint14_linear_128_9561)"/>
<path d="M827.996 122.305C824.759 122.904 822.792 126.814 823.605 131.038C824.417 135.262 827.7 138.2 830.938 137.601C834.176 137.002 836.142 133.091 835.33 128.867C834.518 124.643 831.234 121.705 827.996 122.305Z" fill="url(#paint15_linear_128_9561)"/>
<path opacity="0.5998" d="M68.7945 422.166C65.5232 422.763 62.1744 419.774 61.3527 415.524C60.531 411.273 62.5351 407.308 65.8064 406.712C69.0776 406.115 72.4264 409.105 73.2482 413.355C74.0885 417.701 72.0657 421.57 68.7945 422.166Z" fill="url(#paint16_linear_128_9561)"/>
<path d="M537.68 282.214C534.341 282.832 530.999 279.842 530.161 275.485C529.323 271.129 531.325 267.149 534.664 266.531C538.004 265.913 541.346 268.903 542.183 273.26C543.021 277.616 541.02 281.596 537.68 282.214Z" fill="url(#paint17_linear_128_9561)"/>
<path d="M195.934 412.31C192.595 412.928 189.16 409.854 188.322 405.498C187.484 401.141 189.541 397.051 192.881 396.433C196.22 395.815 199.655 398.888 200.493 403.245C201.331 407.601 199.274 411.692 195.934 412.31Z" fill="url(#paint18_linear_128_9561)"/>
<path opacity="0.929" d="M50.5356 207.339C46.9669 207.99 43.4133 204.738 42.5169 200.102C41.6205 195.465 43.7917 191.169 47.286 190.532C50.8547 189.882 54.4827 193.12 55.3791 197.757C56.2012 202.407 54.1043 206.689 50.5356 207.339Z" fill="url(#paint19_linear_128_9561)"/>
<path d="M418.817 298.07C415.107 298.757 411.301 295.351 410.37 290.511C409.439 285.67 411.718 281.138 415.429 280.451C419.139 279.764 422.945 283.17 423.876 288.01C424.807 292.851 422.528 297.384 418.817 298.07Z" fill="url(#paint20_linear_128_9561)"/>
<path d="M238.106 184.545C234.322 185.246 230.516 181.84 229.566 176.902C228.616 171.965 230.896 167.432 234.681 166.732C238.465 166.031 242.271 169.437 243.221 174.375C244.17 179.312 241.891 183.844 238.106 184.545Z" fill="url(#paint21_linear_128_9561)"/>
<g opacity="0.4052">
<path d="M370.24 304.428C370.389 304.401 370.481 304.484 370.574 304.566C370.686 304.745 370.742 305.033 370.556 305.265L294.785 389.727C294.655 389.85 294.432 389.89 294.227 389.628C294.115 389.45 294.059 389.162 294.245 388.93L370.017 304.468C370.165 304.441 370.24 304.428 370.24 304.428Z" fill="url(#paint22_linear_128_9561)"/>
</g>
<g opacity="0.3104">
<path d="M294.737 390.266C294.812 390.253 294.886 390.24 294.905 390.336C295.073 390.406 295.129 390.695 294.999 390.818L246.161 507.025C246.124 507.232 245.9 507.272 245.788 507.092C245.62 507.022 245.564 506.733 245.694 506.61L294.532 390.403C294.588 390.293 294.663 390.28 294.737 390.266Z" fill="url(#paint23_linear_128_9561)"/>
</g>
<g opacity="0.088319">
<path d="M584.555 405.477L757.197 470.47C757.271 470.457 757.29 470.553 757.29 470.553C757.309 470.648 757.234 470.662 757.234 470.662L584.592 405.668C584.517 405.682 584.499 405.586 584.555 405.477C584.48 405.491 584.48 405.491 584.555 405.477Z" fill="url(#paint24_linear_128_9561)"/>
</g>
<g opacity="0.2798">
<path d="M659.37 380.363C659.519 380.337 659.611 380.416 659.721 380.587C659.757 380.772 659.718 380.97 659.57 380.996L584.802 405.259C584.654 405.286 584.487 405.22 584.451 405.036C584.416 404.851 584.454 404.653 584.602 404.626L659.37 380.363Z" fill="url(#paint25_linear_128_9561)"/>
</g>
<g opacity="0.6236">
<path d="M658.873 379.49C659.022 379.463 659.189 379.533 659.283 379.616L757.53 470.011C757.809 470.26 757.903 470.742 757.736 471.071C757.568 471.4 757.196 471.467 756.916 471.218L658.762 380.905C658.483 380.656 658.389 380.175 658.556 379.846C658.668 379.626 658.724 379.516 658.873 379.49Z" fill="url(#paint26_linear_128_9561)"/>
</g>
<g opacity="0.6664">
<path d="M916.529 3.46405C916.604 3.45067 916.753 3.42389 916.847 3.50712C917.258 3.63345 917.445 4.19983 917.39 4.70968L894.8 115.333C894.745 115.843 894.315 116.019 893.904 115.893C893.493 115.767 893.306 115.2 893.361 114.691L915.951 4.06759C916.025 3.65435 916.23 3.51758 916.529 3.46405Z" fill="url(#paint27_linear_128_9561)"/>
</g>
<g opacity="0.086939">
<path d="M916.32 4.14458L1003.46 74.8203L1003.38 74.4352L916.432 3.9254L916.357 3.93873L916.283 3.95206C916.227 4.06167 916.246 4.15792 916.32 4.14458Z" fill="url(#paint28_linear_128_9561)"/>
</g>
<g opacity="0.271">
<path d="M894.094 115.699L1011.88 119.863L1011.73 119.113L894.023 114.936C894.023 114.936 894.023 114.936 893.948 114.949C893.8 114.976 893.67 115.096 893.706 115.284C893.743 115.471 893.946 115.726 894.094 115.699Z" fill="url(#paint29_linear_128_9561)"/>
</g>
<g opacity="0.1525">
<path d="M809.44 340.697C809.514 340.683 809.606 340.759 809.623 340.848C809.64 340.937 809.583 341.04 809.509 341.054L659.189 379.43C659.115 379.444 659.023 379.368 659.006 379.279C658.989 379.19 659.046 379.087 659.12 379.074L809.44 340.697Z" fill="url(#paint30_linear_128_9561)"/>
</g>
<g opacity="0.080039">
<path d="M729.41 17.0845L783.301 114.289C783.301 114.289 783.395 114.372 783.376 114.275C783.376 114.275 783.432 114.165 783.358 114.179L729.466 16.9745L729.392 16.9879L729.41 17.0845Z" fill="url(#paint31_linear_128_9561)"/>
</g>
<g opacity="0.3193">
<path d="M493.054 62.3237L416.458 248.871C416.403 248.981 416.44 249.174 416.552 249.353C416.645 249.437 416.794 249.41 416.925 249.287L493.724 62.2036L493.054 62.3237Z" fill="url(#paint32_linear_128_9561)"/>
</g>
<g opacity="0.5507">
<path d="M92.6111 329.283C92.76 329.257 92.8531 329.34 92.9462 329.422C93.1325 329.588 93.2072 329.973 93.0213 330.206L-7.41199 494.388C-7.52347 494.607 -7.82113 494.66 -8.02605 494.398C-8.21228 494.232 -8.28706 493.847 -8.10115 493.615L92.3508 329.529C92.4065 329.42 92.5367 329.297 92.6111 329.283Z" fill="url(#paint33_linear_128_9561)"/>
</g>
<g opacity="0.3811">
<path d="M537.413 53.0891L536.668 53.2226L669.242 199.273C669.354 199.452 669.578 199.412 669.634 199.302C669.764 199.179 669.708 198.89 669.615 198.807L537.413 53.0891Z" fill="url(#paint34_linear_128_9561)"/>
</g>
<g opacity="0.5007">
<path d="M829.622 130.737C829.77 130.71 830.029 130.858 830.066 131.045C830.12 131.327 830.083 131.527 829.878 131.661L668.833 198.245C668.61 198.285 668.444 198.218 668.315 197.95C668.26 197.669 668.298 197.468 668.503 197.334L829.622 130.737Z" fill="url(#paint35_linear_128_9561)"/>
</g>
<g opacity="0.202">
<path d="M339.75 90.1522L339.303 90.2322L536.761 274.357C536.855 274.44 536.929 274.426 536.985 274.317C537.041 274.207 537.022 274.111 536.929 274.028L339.75 90.1522Z" fill="url(#paint36_linear_128_9561)"/>
</g>
<g opacity="0.616">
<path d="M67.1287 413.77L194.404 403.753C194.701 403.7 194.994 404.025 195.065 404.39C195.136 404.755 194.91 405.174 194.595 405.136L67.3942 415.139C67.0975 415.193 66.8041 414.868 66.7333 414.503C66.6625 414.138 66.832 413.824 67.1287 413.77Z" fill="url(#paint37_linear_128_9561)"/>
</g>
<g opacity="0.047255">
<path d="M49.2917 200.889L-161.156 408.827L-161.23 408.841L-161.249 408.745L49.2917 200.889Z" fill="url(#paint38_linear_128_9561)"/>
</g>
<g opacity="0.2537">
<path d="M48.9373 199.076C49.0881 199.049 49.2011 199.229 49.2199 199.325L51.9522 434.454C51.971 434.55 51.8389 434.674 51.7635 434.688C51.6881 434.701 51.5752 434.521 51.5564 434.424L48.8241 199.296C48.7865 199.103 48.8619 199.089 48.9373 199.076Z" fill="url(#paint39_linear_128_9561)"/>
</g>
<g opacity="0.3084">
<path d="M-161.105 410.443C-161.031 410.43 -161.031 410.43 -161.105 410.443L51.9199 434.518C52.0684 434.491 52.1794 434.667 52.1418 434.869C52.1785 435.058 52.0484 435.179 51.8816 435.111L-161.069 411.024C-161.218 411.05 -161.329 410.875 -161.291 410.672C-161.235 410.564 -161.179 410.457 -161.105 410.443Z" fill="url(#paint40_linear_128_9561)"/>
</g>
<g opacity="0.049659">
<path d="M236.735 177.388C236.829 177.471 236.829 177.471 236.735 177.388L51.4278 432.988L51.3534 433.001L51.3347 432.905L236.735 177.388Z" fill="url(#paint41_linear_128_9561)"/>
</g>
<g opacity="0.6778">
<path d="M235.831 175.051C235.905 175.038 236.054 175.011 236.147 175.094L417.741 288.549C418.002 288.701 418.151 289.072 418.077 289.483C417.984 289.798 417.705 289.948 417.37 289.809L235.776 176.354C235.516 176.202 235.367 175.831 235.441 175.42C235.552 175.201 235.682 175.078 235.831 175.051Z" fill="url(#paint42_linear_128_9561)"/>
</g>
<path opacity="0.031196" d="M583.977 405.69L718.273 803.523L677.788 622.313L583.977 405.69Z" fill="url(#paint43_linear_128_9561)"/>
<path opacity="0.037882" d="M585.516 405.391L369.788 303.737L496.512 115.531L585.516 405.391Z" fill="url(#paint44_linear_128_9561)"/>
<path opacity="0.015948" d="M272.257 738.797L294.825 390.717L213.275 742.539L272.257 738.797Z" fill="url(#paint45_linear_128_9561)"/>
<path opacity="0.033568" d="M271.875 738.407L245.592 507.117L370.364 305.076L271.875 738.407Z" fill="url(#paint46_linear_128_9561)"/>
<path opacity="0.1177" d="M245.91 506.537L370.345 304.981L294.624 390.035L245.91 506.537Z" fill="url(#paint47_linear_128_9561)"/>
<path opacity="0.1177" d="M245.91 506.537L370.345 304.981L294.624 390.035L245.91 506.537Z" fill="url(#paint48_linear_128_9561)"/>
<path opacity="0.061389" d="M245.98 507.494L294.824 390.715L213.287 742.52L245.98 507.494Z" fill="url(#paint49_linear_128_9561)"/>
<path opacity="0.07378" d="M584.996 405.098L369.886 304.249L659.636 380.25L584.996 405.098Z" fill="url(#paint50_linear_128_9561)"/>
<path opacity="0.1294" d="M584.633 405.477L757.164 470.574L659.297 380.602L584.633 405.477Z" fill="url(#paint51_linear_128_9561)"/>
<path opacity="0.1294" d="M584.633 405.477L757.164 470.574L659.297 380.602L584.633 405.477Z" fill="url(#paint52_linear_128_9561)"/>
<path opacity="0.1294" d="M584.633 405.477L757.164 470.574L659.297 380.602L584.633 405.477Z" fill="url(#paint53_linear_128_9561)"/>
<path opacity="0.011197" d="M538.934 714.645L659.639 381.729L426.365 807.847L538.934 714.645Z" fill="url(#paint54_linear_128_9561)"/>
<path opacity="0.01443" d="M809.573 340.065L369.912 304.244L659.369 379.428L809.573 340.065Z" fill="url(#paint55_linear_128_9561)"/>
<path opacity="0.1227" d="M809.434 340.686L756.989 470.223L659.09 380.168L809.434 340.686Z" fill="url(#paint56_linear_128_9561)"/>
<path opacity="0.13" d="M1012.02 119.438L1003.39 74.8372L916.496 4.23205L894.031 114.865L1012.02 119.438Z" fill="url(#paint57_linear_128_9561)"/>
<path opacity="0.13" d="M1012.02 119.438L1003.39 74.8372L916.496 4.23205L894.031 114.865L1012.02 119.438Z" fill="url(#paint58_linear_128_9561)"/>
<path opacity="0.13" d="M1012.02 119.438L1003.39 74.8372L916.496 4.23205L894.031 114.865L1012.02 119.438Z" fill="url(#paint59_linear_128_9561)"/>
<path opacity="0.059419" d="M809.243 339.667L894.369 116.306L756.735 469.622L809.243 339.667Z" fill="url(#paint60_linear_128_9561)"/>
<path opacity="0.059419" d="M809.243 339.667L894.369 116.306L756.735 469.622L809.243 339.667Z" fill="url(#paint61_linear_128_9561)"/>
<path opacity="0.072482" d="M1019.24 158.014L1011.99 120.516L894.082 115.969L809.055 338.744L1019.24 158.014Z" fill="url(#paint62_linear_128_9561)"/>
<path opacity="0.062326" d="M150.944 549.897L265.655 440.958L7.75124 155.415L150.944 549.897Z" fill="url(#paint63_linear_128_9561)"/>
<path opacity="0.03401" d="M6.72543 152.586L8.47145 155.256L149.195 212.887L67.9736 141.416L6.72543 152.586Z" fill="url(#paint64_linear_128_9561)"/>
<path opacity="0.068586" d="M665.171 448.724L546.674 175.377L783.3 115.537L665.171 448.724Z" fill="url(#paint65_linear_128_9561)"/>
<path opacity="0.012323" d="M265.522 441.226L13.5778 604.255L149.008 213.985L265.522 441.226Z" fill="url(#paint66_linear_128_9561)"/>
<path opacity="0.04504" d="M665.386 449.214L546.689 175.443L739.001 432.387L665.386 449.214Z" fill="url(#paint67_linear_128_9561)"/>
<path opacity="0.074716" d="M610.176 39.8788L547.087 174.138L783.322 114.451L729.955 18.0317L610.176 39.8788Z" fill="url(#paint68_linear_128_9561)"/>
<path opacity="0.02342" d="M8.24622 155.317L92.6048 328.407L149.256 213.239L8.24622 155.317Z" fill="url(#paint69_linear_128_9561)"/>
<path opacity="0.01" d="M503.279 59.4822L547.286 174.876L610.369 39.9569L503.279 59.4822Z" fill="url(#paint70_linear_128_9561)"/>
<path opacity="0.01" d="M150.469 549.046L148.486 213.344L417.31 251.042L150.469 549.046Z" fill="url(#paint71_linear_128_9561)"/>
<path opacity="0.011668" d="M609.933 39.9373L546.646 175.199L739.102 432.231L685.889 26.0874L609.933 39.9373Z" fill="url(#paint72_linear_128_9561)"/>
<path opacity="0.091391" d="M729.566 17.0547L783.117 114.089L808.82 2.60476L729.566 17.0547Z" fill="url(#paint73_linear_128_9561)"/>
<path opacity="0.091391" d="M729.566 17.0547L783.117 114.089L808.82 2.60476L729.566 17.0547Z" fill="url(#paint74_linear_128_9561)"/>
<path opacity="0.01" d="M808.834 2.96312L783.042 114.664L738.217 431.71L818.451 1.20952L808.834 2.96312Z" fill="url(#paint75_linear_128_9561)"/>
<path opacity="0.044896" d="M783.188 114.97L668.438 199L738.397 431.961L783.188 114.97Z" fill="url(#paint76_linear_128_9561)"/>
<path opacity="0.062182" d="M92.2089 327.232L148.907 213.327L417.132 250.151L92.2089 327.232Z" fill="url(#paint77_linear_128_9561)"/>
<path opacity="0.077061" d="M-7.70415 494.06L92.5866 329.03L149.209 213.945L-7.70415 494.06Z" fill="url(#paint78_linear_128_9561)"/>
<path opacity="0.067824" d="M669.193 200.304L416.373 249.996L738.902 432.398L669.193 200.304Z" fill="url(#paint79_linear_128_9561)"/>
<path opacity="0.08804" d="M537.25 53.1147L669.234 198.811L670.088 28.8949L537.25 53.1147Z" fill="url(#paint80_linear_128_9561)"/>
<path opacity="0.1116" d="M493.145 61.9443L416.646 248.656L669.358 198.985L537.614 53.8348L493.145 61.9443Z" fill="url(#paint81_linear_128_9561)"/>
<path opacity="0.1116" d="M493.145 61.9443L416.646 248.656L669.358 198.985L537.614 53.8348L493.145 61.9443Z" fill="url(#paint82_linear_128_9561)"/>
<path opacity="0.1147" d="M-182.185 458.117L-7.45143 494.419L92.8004 330.247L-182.185 458.117Z" fill="url(#paint83_linear_128_9561)"/>
<path opacity="0.01" d="M-181.955 458.371L93.0155 331.347L-417.123 543.844L-181.955 458.371Z" fill="url(#paint84_linear_128_9561)"/>
<path opacity="0.066921" d="M335.652 90.9162L416.902 249.348L493.406 62.153L335.652 90.9162Z" fill="url(#paint85_linear_128_9561)"/>
<path opacity="0.01" d="M623.522 37.6042L536.002 273.494L669.273 199.011L670.128 29.1067L623.522 37.6042Z" fill="url(#paint86_linear_128_9561)"/>
<path opacity="0.06076" d="M-182.16 457.501L92.7906 330.213L67.408 414.217L-182.16 457.501Z" fill="url(#paint87_linear_128_9561)"/>
<path opacity="0.1011" d="M537.25 53.1149L668.963 198.169L829.809 130.201L578.894 45.5203L537.25 53.1149Z" fill="url(#paint88_linear_128_9561)"/>
<path opacity="0.1011" d="M537.25 53.1149L668.963 198.169L829.809 130.201L578.894 45.5203L537.25 53.1149Z" fill="url(#paint89_linear_128_9561)"/>
<path opacity="0.0588" d="M493.288 61.9238L416.695 249.424L536.565 274.205L513.303 58.2746L493.288 61.9238Z" fill="url(#paint90_linear_128_9561)"/>
<path opacity="0.039582" d="M-119.661 702.686L92.7894 330.198L67.5324 415.267L-119.661 702.686Z" fill="url(#paint91_linear_128_9561)"/>
<path opacity="0.037067" d="M-199.055 381.256L92.8503 330.478L-264.583 460.104L-199.055 381.256Z" fill="url(#paint92_linear_128_9561)"/>
<path opacity="0.015011" d="M-199.216 380.912L92.7447 330.176L194.613 404.332L-199.216 380.912Z" fill="url(#paint93_linear_128_9561)"/>
<path opacity="0.027555" d="M92.8399 330.45L-208.89 541.205L67.549 415.007L92.8399 330.45Z" fill="url(#paint94_linear_128_9561)"/>
<path opacity="0.061671" d="M339.701 90.1553L536.282 273.615L669.42 199.295L349.279 88.4087L339.701 90.1553Z" fill="url(#paint95_linear_128_9561)"/>
<path opacity="0.1045" d="M-7.70482 494.06L194.595 405.181L67.3004 414.878L-7.70482 494.06Z" fill="url(#paint96_linear_128_9561)"/>
<path opacity="0.068266" d="M-198.956 381.705L-374.244 413.426L67.4766 414.402L-198.956 381.705Z" fill="url(#paint97_linear_128_9561)"/>
<path opacity="0.072422" d="M326.88 93.5207L194.059 402.603L536.726 274.688L340.098 91.1103L326.88 93.5207Z" fill="url(#paint98_linear_128_9561)"/>
<path opacity="0.1124" d="M-199.196 380.907L-116.493 450.382L67.4826 414.438L-199.196 380.907Z" fill="url(#paint99_linear_128_9561)"/>
<path opacity="0.01431" d="M316.634 96.9607L-116.851 448.935L194.608 403.374L327.47 94.9844L316.634 96.9607Z" fill="url(#paint100_linear_128_9561)"/>
<path opacity="0.087527" d="M194.902 404.273L48.5227 199.126L67.1542 413.851L194.902 404.273Z" fill="url(#paint101_linear_128_9561)"/>
<path opacity="0.016416" d="M49.3147 200.995L-116.391 451.361L-273.131 733.771L49.3147 200.995Z" fill="url(#paint102_linear_128_9561)"/>
<path opacity="0.072461" d="M194.906 404.273L48.9496 199.996L-116.673 449.825L194.906 404.273Z" fill="url(#paint103_linear_128_9561)"/>
<path opacity="0.037705" d="M194.484 404.652L-116.395 451.291L51.6984 434.286L194.484 404.652Z" fill="url(#paint104_linear_128_9561)"/>
<path opacity="0.063972" d="M49.2183 200.497L-208.877 541.265L-161.094 410.157L49.2183 200.497Z" fill="url(#paint105_linear_128_9561)"/>
<path opacity="0.096665" d="M-3.50041 154.505L49.0273 198.914L27.4972 148.853L-3.50041 154.505Z" fill="url(#paint106_linear_128_9561)"/>
<path opacity="0.020615" d="M-374.97 413.57L73.9922 752.102L-161.01 411.632L-374.97 413.57Z" fill="url(#paint107_linear_128_9561)"/>
<path opacity="0.1011" d="M-116.483 450.717L51.9258 434.805L-160.999 410.723L-116.483 450.717Z" fill="url(#paint108_linear_128_9561)"/>
<path opacity="0.057968" d="M-69.4861 166.877L49.0273 198.914L-3.36546 154.817L-69.4861 166.877Z" fill="url(#paint109_linear_128_9561)"/>
<path opacity="0.051844" d="M27.3592 148.719L48.7531 198.211L236.535 175.613L176.91 121.43L27.3592 148.719Z" fill="url(#paint110_linear_128_9561)"/>
<path opacity="0.1136" d="M49.1492 200.147L52.1698 434.544L-161.174 409.839L49.1492 200.147Z" fill="url(#paint111_linear_128_9561)"/>
<path opacity="0.1045" d="M73.717 751.954L52.0926 435.647L-161.686 410.855L73.717 751.954Z" fill="url(#paint112_linear_128_9561)"/>
<path opacity="0.065705" d="M48.4994 199.227L417.584 289.809L51.4187 432.945L48.4994 199.227Z" fill="url(#paint113_linear_128_9561)"/>
<path opacity="0.1022" d="M48.5354 199.222L236.628 176.713L51.5652 433.696L48.5354 199.222Z" fill="url(#paint114_linear_128_9561)"/>
<path opacity="0.04601" d="M73.9982 752.57L-144.137 1000.97L-161.579 411.321L73.9982 752.57Z" fill="url(#paint115_linear_128_9561)"/>
<path opacity="0.066988" d="M235.169 175.878L563.992 689.16L417.163 289.76L235.169 175.878Z" fill="url(#paint116_linear_128_9561)"/>
<path opacity="0.099889" d="M236.42 176.799L417.567 289.845L51.4212 432.947L236.42 176.799Z" fill="url(#paint117_linear_128_9561)"/>
<defs>
<linearGradient id="paint0_linear_128_9561" x1="497.563" y1="120.43" x2="495.445" y2="108.991" gradientUnits="userSpaceOnUse">
<stop stop-color="#814E00"/>
<stop offset="1" stop-color="#C07F00"/>
</linearGradient>
<linearGradient id="paint1_linear_128_9561" x1="295.797" y1="395.801" x2="293.644" y2="384.168" gradientUnits="userSpaceOnUse">
<stop stop-color="#814E00"/>
<stop offset="1" stop-color="#C07F00"/>
</linearGradient>
<linearGradient id="paint2_linear_128_9561" x1="585.977" y1="411.313" x2="583.859" y2="399.7" gradientUnits="userSpaceOnUse">
<stop stop-color="#814E00"/>
<stop offset="1" stop-color="#C07F00"/>
</linearGradient>
<linearGradient id="paint3_linear_128_9561" x1="371.331" y1="310.081" x2="369.178" y2="298.274" gradientUnits="userSpaceOnUse">
<stop stop-color="#814E00"/>
<stop offset="1" stop-color="#C07F00"/>
</linearGradient>
<linearGradient id="paint4_linear_128_9561" x1="917.789" y1="9.97324" x2="915.601" y2="-2.02747" gradientUnits="userSpaceOnUse">
<stop stop-color="#814E00"/>
<stop offset="1" stop-color="#C07F00"/>
</linearGradient>
<linearGradient id="paint5_linear_128_9561" x1="660.518" y1="386.286" x2="658.295" y2="374.091" gradientUnits="userSpaceOnUse">
<stop stop-color="#814E00"/>
<stop offset="1" stop-color="#C07F00"/>
</linearGradient>
<linearGradient id="paint6_linear_128_9561" x1="895.351" y1="121.393" x2="893.128" y2="109.199" gradientUnits="userSpaceOnUse">
<stop stop-color="#814E00"/>
<stop offset="1" stop-color="#C07F00"/>
</linearGradient>
<linearGradient id="paint7_linear_128_9561" x1="810.483" y1="346.106" x2="808.224" y2="333.718" gradientUnits="userSpaceOnUse">
<stop stop-color="#814E00"/>
<stop offset="1" stop-color="#C07F00"/>
</linearGradient>
<linearGradient id="paint8_linear_128_9561" x1="9.91684" y1="161.824" x2="8.15944" y2="152.331" gradientUnits="userSpaceOnUse">
<stop stop-color="#814E00"/>
<stop offset="1" stop-color="#C07F00"/>
</linearGradient>
<linearGradient id="paint9_linear_128_9561" x1="548.626" y1="182.096" x2="546.149" y2="168.719" gradientUnits="userSpaceOnUse">
<stop stop-color="#814E00"/>
<stop offset="1" stop-color="#C07F00"/>
</linearGradient>
<linearGradient id="paint10_linear_128_9561" x1="784.387" y1="121.21" x2="781.839" y2="107.445" gradientUnits="userSpaceOnUse">
<stop stop-color="#814E00"/>
<stop offset="1" stop-color="#C07F00"/>
</linearGradient>
<linearGradient id="paint11_linear_128_9561" x1="150.348" y1="219.895" x2="147.764" y2="205.936" gradientUnits="userSpaceOnUse">
<stop stop-color="#814E00"/>
<stop offset="1" stop-color="#C07F00"/>
</linearGradient>
<linearGradient id="paint12_linear_128_9561" x1="418.29" y1="257.175" x2="415.598" y2="242.634" gradientUnits="userSpaceOnUse">
<stop stop-color="#814E00"/>
<stop offset="1" stop-color="#C07F00"/>
</linearGradient>
<linearGradient id="paint13_linear_128_9561" x1="93.9185" y1="336.081" x2="91.2089" y2="321.444" gradientUnits="userSpaceOnUse">
<stop stop-color="#814E00"/>
<stop offset="1" stop-color="#C07F00"/>
</linearGradient>
<linearGradient id="paint14_linear_128_9561" x1="670.423" y1="206.484" x2="667.659" y2="191.555" gradientUnits="userSpaceOnUse">
<stop stop-color="#814E00"/>
<stop offset="1" stop-color="#C07F00"/>
</linearGradient>
<linearGradient id="paint15_linear_128_9561" x1="830.938" y1="137.601" x2="828.103" y2="122.285" gradientUnits="userSpaceOnUse">
<stop stop-color="#814E00"/>
<stop offset="1" stop-color="#C07F00"/>
</linearGradient>
<linearGradient id="paint16_linear_128_9561" x1="68.7945" y1="422.166" x2="65.9712" y2="406.682" gradientUnits="userSpaceOnUse">
<stop stop-color="#814E00"/>
<stop offset="1" stop-color="#C07F00"/>
</linearGradient>
<linearGradient id="paint17_linear_128_9561" x1="537.68" y1="282.214" x2="534.773" y2="266.511" gradientUnits="userSpaceOnUse">
<stop stop-color="#814E00"/>
<stop offset="1" stop-color="#C07F00"/>
</linearGradient>
<linearGradient id="paint18_linear_128_9561" x1="195.934" y1="412.31" x2="192.991" y2="396.412" gradientUnits="userSpaceOnUse">
<stop stop-color="#814E00"/>
<stop offset="1" stop-color="#C07F00"/>
</linearGradient>
<linearGradient id="paint19_linear_128_9561" x1="50.5728" y1="207.333" x2="47.5025" y2="190.493" gradientUnits="userSpaceOnUse">
<stop stop-color="#814E00"/>
<stop offset="1" stop-color="#C07F00"/>
</linearGradient>
<linearGradient id="paint20_linear_128_9561" x1="418.817" y1="298.07" x2="415.551" y2="280.428" gradientUnits="userSpaceOnUse">
<stop stop-color="#814E00"/>
<stop offset="1" stop-color="#C07F00"/>
</linearGradient>
<linearGradient id="paint21_linear_128_9561" x1="238.106" y1="184.545" x2="234.804" y2="166.709" gradientUnits="userSpaceOnUse">
<stop stop-color="#814E00"/>
<stop offset="1" stop-color="#C07F00"/>
</linearGradient>
<linearGradient id="paint22_linear_128_9561" x1="339.147" y1="381.839" x2="326.677" y2="312.232" gradientUnits="userSpaceOnUse">
<stop stop-color="#814E00"/>
<stop offset="1" stop-color="#C07F00"/>
</linearGradient>
<linearGradient id="paint23_linear_128_9561" x1="280.505" y1="501.025" x2="261.729" y2="396.177" gradientUnits="userSpaceOnUse">
<stop stop-color="#814E00"/>
<stop offset="1" stop-color="#C07F00"/>
</linearGradient>
<linearGradient id="paint24_linear_128_9561" x1="679.922" y1="484.516" x2="663.232" y2="391.378" gradientUnits="userSpaceOnUse">
<stop stop-color="#814E00"/>
<stop offset="1" stop-color="#C07F00"/>
</linearGradient>
<linearGradient id="paint25_linear_128_9561" x1="623.161" y1="398.352" x2="621.161" y2="387.244" gradientUnits="userSpaceOnUse">
<stop stop-color="#814E00"/>
<stop offset="1" stop-color="#C07F00"/>
</linearGradient>
<linearGradient id="paint26_linear_128_9561" x1="718.414" y1="478.337" x2="699.413" y2="372.23" gradientUnits="userSpaceOnUse">
<stop stop-color="#814E00"/>
<stop offset="1" stop-color="#C07F00"/>
</linearGradient>
<linearGradient id="paint27_linear_128_9561" x1="915.553" y1="112.112" x2="896.729" y2="7.01025" gradientUnits="userSpaceOnUse">
<stop stop-color="#814E00"/>
<stop offset="1" stop-color="#C07F00"/>
</linearGradient>
<linearGradient id="paint28_linear_128_9561" x1="967.956" y1="81.178" x2="952.95" y2="-2.61458" gradientUnits="userSpaceOnUse">
<stop stop-color="#814E00"/>
<stop offset="1" stop-color="#C07F00"/>
</linearGradient>
<linearGradient id="paint29_linear_128_9561" x1="955.213" y1="130.045" x2="950.669" y2="104.757" gradientUnits="userSpaceOnUse">
<stop stop-color="#814E00"/>
<stop offset="1" stop-color="#C07F00"/>
</linearGradient>
<linearGradient id="paint30_linear_128_9561" x1="735.395" y1="365.641" x2="733.372" y2="354.461" gradientUnits="userSpaceOnUse">
<stop stop-color="#814E00"/>
<stop offset="1" stop-color="#C07F00"/>
</linearGradient>
<linearGradient id="paint31_linear_128_9561" x1="766.444" y1="117.353" x2="747.872" y2="13.6774" gradientUnits="userSpaceOnUse">
<stop stop-color="#814E00"/>
<stop offset="1" stop-color="#C07F00"/>
</linearGradient>
<linearGradient id="paint32_linear_128_9561" x1="471.388" y1="239.609" x2="441.3" y2="71.5915" gradientUnits="userSpaceOnUse">
<stop stop-color="#814E00"/>
<stop offset="1" stop-color="#C07F00"/>
</linearGradient>
<linearGradient id="paint33_linear_128_9561" x1="56.2875" y1="483.118" x2="30.7221" y2="340.367" gradientUnits="userSpaceOnUse">
<stop stop-color="#814E00"/>
<stop offset="1" stop-color="#C07F00"/>
</linearGradient>
<linearGradient id="paint34_linear_128_9561" x1="619.166" y1="208.406" x2="589.676" y2="43.7301" gradientUnits="userSpaceOnUse">
<stop stop-color="#814E00"/>
<stop offset="1" stop-color="#C07F00"/>
</linearGradient>
<linearGradient id="paint35_linear_128_9561" x1="752.811" y1="183.155" x2="746.089" y2="145.747" gradientUnits="userSpaceOnUse">
<stop stop-color="#814E00"/>
<stop offset="1" stop-color="#C07F00"/>
</linearGradient>
<linearGradient id="paint36_linear_128_9561" x1="458.78" y1="288.396" x2="420.683" y2="75.6588" gradientUnits="userSpaceOnUse">
<stop stop-color="#814E00"/>
<stop offset="1" stop-color="#C07F00"/>
</linearGradient>
<linearGradient id="paint37_linear_128_9561" x1="132.247" y1="416.397" x2="129.736" y2="402.477" gradientUnits="userSpaceOnUse">
<stop stop-color="#814E00"/>
<stop offset="1" stop-color="#C07F00"/>
</linearGradient>
<linearGradient id="paint38_linear_128_9561" x1="-39.9978" y1="387.12" x2="-69.5497" y2="222.181" gradientUnits="userSpaceOnUse">
<stop stop-color="#814E00"/>
<stop offset="1" stop-color="#C07F00"/>
</linearGradient>
<linearGradient id="paint39_linear_128_9561" x1="72.5368" y1="430.963" x2="31.517" y2="202.199" gradientUnits="userSpaceOnUse">
<stop stop-color="#814E00"/>
<stop offset="1" stop-color="#C07F00"/>
</linearGradient>
<linearGradient id="paint40_linear_128_9561" x1="-48.6687" y1="453.197" x2="-59.6122" y2="392.227" gradientUnits="userSpaceOnUse">
<stop stop-color="#814E00"/>
<stop offset="1" stop-color="#C07F00"/>
</linearGradient>
<linearGradient id="paint41_linear_128_9561" x1="164.94" y1="412.657" x2="126.343" y2="197.16" gradientUnits="userSpaceOnUse">
<stop stop-color="#814E00"/>
<stop offset="1" stop-color="#C07F00"/>
</linearGradient>
<linearGradient id="paint42_linear_128_9561" x1="340.587" y1="303.665" x2="315.01" y2="160.869" gradientUnits="userSpaceOnUse">
<stop stop-color="#814E00"/>
<stop offset="1" stop-color="#C07F00"/>
</linearGradient>
<linearGradient id="paint43_linear_128_9561" x1="690.552" y1="808.583" x2="615.957" y2="399.854" gradientUnits="userSpaceOnUse">
<stop stop-color="#814E00"/>
<stop offset="1" stop-color="#C07F00"/>
</linearGradient>
<linearGradient id="paint44_linear_128_9561" x1="490.817" y1="422.656" x2="436.806" y2="126.417" gradientUnits="userSpaceOnUse">
<stop stop-color="#814E00"/>
<stop offset="1" stop-color="#C07F00"/>
</linearGradient>
<linearGradient id="paint45_linear_128_9561" x1="286.824" y1="736.14" x2="226.125" y2="403.243" gradientUnits="userSpaceOnUse">
<stop stop-color="#814E00"/>
<stop offset="1" stop-color="#C07F00"/>
</linearGradient>
<linearGradient id="paint46_linear_128_9561" x1="359.906" y1="722.356" x2="286.606" y2="320.348" gradientUnits="userSpaceOnUse">
<stop stop-color="#814E00"/>
<stop offset="1" stop-color="#C07F00"/>
</linearGradient>
<linearGradient id="paint47_linear_128_9561" x1="324.83" y1="492.147" x2="293.267" y2="319.035" gradientUnits="userSpaceOnUse">
<stop stop-color="#814E00"/>
<stop offset="1" stop-color="#C07F00"/>
</linearGradient>
<linearGradient id="paint48_linear_128_9561" x1="324.83" y1="492.147" x2="293.267" y2="319.035" gradientUnits="userSpaceOnUse">
<stop stop-color="#814E00"/>
<stop offset="1" stop-color="#C07F00"/>
</linearGradient>
<linearGradient id="paint49_linear_128_9561" x1="285.519" y1="729.35" x2="226.06" y2="403.254" gradientUnits="userSpaceOnUse">
<stop stop-color="#814E00"/>
<stop offset="1" stop-color="#C07F00"/>
</linearGradient>
<linearGradient id="paint50_linear_128_9561" x1="528.89" y1="415.331" x2="504.163" y2="279.758" gradientUnits="userSpaceOnUse">
<stop stop-color="#814E00"/>
<stop offset="1" stop-color="#C07F00"/>
</linearGradient>
<linearGradient id="paint51_linear_128_9561" x1="679.915" y1="484.661" x2="660.886" y2="380.312" gradientUnits="userSpaceOnUse">
<stop stop-color="#814E00"/>
<stop offset="1" stop-color="#C07F00"/>
</linearGradient>
<linearGradient id="paint52_linear_128_9561" x1="679.915" y1="484.661" x2="660.886" y2="380.312" gradientUnits="userSpaceOnUse">
<stop stop-color="#814E00"/>
<stop offset="1" stop-color="#C07F00"/>
</linearGradient>
<linearGradient id="paint53_linear_128_9561" x1="679.915" y1="484.661" x2="660.886" y2="380.312" gradientUnits="userSpaceOnUse">
<stop stop-color="#814E00"/>
<stop offset="1" stop-color="#C07F00"/>
</linearGradient>
<linearGradient id="paint54_linear_128_9561" x1="578.821" y1="780.051" x2="511.133" y2="408.805" gradientUnits="userSpaceOnUse">
<stop stop-color="#814E00"/>
<stop offset="1" stop-color="#C07F00"/>
</linearGradient>
<linearGradient id="paint55_linear_128_9561" x1="602.808" y1="389.75" x2="580.201" y2="265.868" gradientUnits="userSpaceOnUse">
<stop stop-color="#814E00"/>
<stop offset="1" stop-color="#C07F00"/>
</linearGradient>
<linearGradient id="paint56_linear_128_9561" x1="755.541" y1="470.487" x2="734.368" y2="354.374" gradientUnits="userSpaceOnUse">
<stop stop-color="#814E00"/>
<stop offset="1" stop-color="#C07F00"/>
</linearGradient>
<linearGradient id="paint57_linear_128_9561" x1="955.459" y1="129.749" x2="932.056" y2="1.3949" gradientUnits="userSpaceOnUse">
<stop stop-color="#814E00"/>
<stop offset="1" stop-color="#C07F00"/>
</linearGradient>
<linearGradient id="paint58_linear_128_9561" x1="955.459" y1="129.749" x2="932.056" y2="1.3949" gradientUnits="userSpaceOnUse">
<stop stop-color="#814E00"/>
<stop offset="1" stop-color="#C07F00"/>
</linearGradient>
<linearGradient id="paint59_linear_128_9561" x1="955.459" y1="129.749" x2="932.056" y2="1.3949" gradientUnits="userSpaceOnUse">
<stop stop-color="#814E00"/>
<stop offset="1" stop-color="#C07F00"/>
</linearGradient>
<linearGradient id="paint60_linear_128_9561" x1="856.201" y1="451.487" x2="798.284" y2="133.825" gradientUnits="userSpaceOnUse">
<stop stop-color="#814E00"/>
<stop offset="1" stop-color="#C07F00"/>
</linearGradient>
<linearGradient id="paint61_linear_128_9561" x1="856.201" y1="451.487" x2="798.284" y2="133.825" gradientUnits="userSpaceOnUse">
<stop stop-color="#814E00"/>
<stop offset="1" stop-color="#C07F00"/>
</linearGradient>
<linearGradient id="paint62_linear_128_9561" x1="927.444" y1="317.157" x2="890.866" y2="116.555" gradientUnits="userSpaceOnUse">
<stop stop-color="#814E00"/>
<stop offset="1" stop-color="#C07F00"/>
</linearGradient>
<linearGradient id="paint63_linear_128_9561" x1="184.197" y1="543.834" x2="109.978" y2="136.776" gradientUnits="userSpaceOnUse">
<stop stop-color="#814E00"/>
<stop offset="1" stop-color="#C07F00"/>
</linearGradient>
<linearGradient id="paint64_linear_128_9561" x1="86.0169" y1="224.408" x2="70.7889" y2="140.903" gradientUnits="userSpaceOnUse">
<stop stop-color="#814E00"/>
<stop offset="1" stop-color="#C07F00"/>
</linearGradient>
<linearGradient id="paint65_linear_128_9561" x1="721.632" y1="438.43" x2="666.638" y2="136.808" gradientUnits="userSpaceOnUse">
<stop stop-color="#814E00"/>
<stop offset="1" stop-color="#C07F00"/>
</linearGradient>
<linearGradient id="paint66_linear_128_9561" x1="150.484" y1="579.293" x2="85.9748" y2="225.477" gradientUnits="userSpaceOnUse">
<stop stop-color="#814E00"/>
<stop offset="1" stop-color="#C07F00"/>
</linearGradient>
<linearGradient id="paint67_linear_128_9561" x1="670.748" y1="448.236" x2="618.618" y2="162.328" gradientUnits="userSpaceOnUse">
<stop stop-color="#814E00"/>
<stop offset="1" stop-color="#C07F00"/>
</linearGradient>
<linearGradient id="paint68_linear_128_9561" x1="666.754" y1="152.311" x2="645.086" y2="33.5115" gradientUnits="userSpaceOnUse">
<stop stop-color="#814E00"/>
<stop offset="1" stop-color="#C07F00"/>
</linearGradient>
<linearGradient id="paint69_linear_128_9561" x1="106.14" y1="325.939" x2="72.8835" y2="143.532" gradientUnits="userSpaceOnUse">
<stop stop-color="#814E00"/>
<stop offset="1" stop-color="#C07F00"/>
</linearGradient>
<linearGradient id="paint70_linear_128_9561" x1="579.873" y1="168.935" x2="558.095" y2="49.4878" gradientUnits="userSpaceOnUse">
<stop stop-color="#814E00"/>
<stop offset="1" stop-color="#C07F00"/>
</linearGradient>
<linearGradient id="paint71_linear_128_9561" x1="307.174" y1="520.474" x2="247.871" y2="195.223" gradientUnits="userSpaceOnUse">
<stop stop-color="#814E00"/>
<stop offset="1" stop-color="#C07F00"/>
</linearGradient>
<linearGradient id="paint72_linear_128_9561" x1="682.377" y1="442.575" x2="608.991" y2="40.109" gradientUnits="userSpaceOnUse">
<stop stop-color="#814E00"/>
<stop offset="1" stop-color="#C07F00"/>
</linearGradient>
<linearGradient id="paint73_linear_128_9561" x1="789.139" y1="112.991" x2="770.293" y2="9.62912" gradientUnits="userSpaceOnUse">
<stop stop-color="#814E00"/>
<stop offset="1" stop-color="#C07F00"/>
</linearGradient>
<linearGradient id="paint74_linear_128_9561" x1="789.139" y1="112.991" x2="770.293" y2="9.62912" gradientUnits="userSpaceOnUse">
<stop stop-color="#814E00"/>
<stop offset="1" stop-color="#C07F00"/>
</linearGradient>
<linearGradient id="paint75_linear_128_9561" x1="817.167" y1="417.314" x2="743.777" y2="14.8258" gradientUnits="userSpaceOnUse">
<stop stop-color="#814E00"/>
<stop offset="1" stop-color="#C07F00"/>
</linearGradient>
<linearGradient id="paint76_linear_128_9561" x1="777.595" y1="424.813" x2="723.097" y2="125.927" gradientUnits="userSpaceOnUse">
<stop stop-color="#814E00"/>
<stop offset="1" stop-color="#C07F00"/>
</linearGradient>
<linearGradient id="paint77_linear_128_9561" x1="256.331" y1="297.282" x2="238.042" y2="197.061" gradientUnits="userSpaceOnUse">
<stop stop-color="#814E00"/>
<stop offset="1" stop-color="#C07F00"/>
</linearGradient>
<linearGradient id="paint78_linear_128_9561" x1="94.2378" y1="475.473" x2="49.8571" y2="232.06" gradientUnits="userSpaceOnUse">
<stop stop-color="#814E00"/>
<stop offset="1" stop-color="#C07F00"/>
</linearGradient>
<linearGradient id="paint79_linear_128_9561" x1="600.161" y1="457.697" x2="556.96" y2="220.768" gradientUnits="userSpaceOnUse">
<stop stop-color="#814E00"/>
<stop offset="1" stop-color="#C07F00"/>
</linearGradient>
<linearGradient id="paint80_linear_128_9561" x1="635.374" y1="204.985" x2="605.418" y2="40.6859" gradientUnits="userSpaceOnUse">
<stop stop-color="#814E00"/>
<stop offset="1" stop-color="#C07F00"/>
</linearGradient>
<linearGradient id="paint81_linear_128_9561" x1="543.337" y1="225.553" x2="512.846" y2="58.3516" gradientUnits="userSpaceOnUse">
<stop stop-color="#814E00"/>
<stop offset="1" stop-color="#C07F00"/>
</linearGradient>
<linearGradient id="paint82_linear_128_9561" x1="543.337" y1="225.553" x2="512.846" y2="58.3516" gradientUnits="userSpaceOnUse">
<stop stop-color="#814E00"/>
<stop offset="1" stop-color="#C07F00"/>
</linearGradient>
<linearGradient id="paint83_linear_128_9561" x1="-24.7055" y1="497.566" x2="-50.4581" y2="356.377" gradientUnits="userSpaceOnUse">
<stop stop-color="#814E00"/>
<stop offset="1" stop-color="#C07F00"/>
</linearGradient>
<linearGradient id="paint84_linear_128_9561" x1="-150.913" y1="495.238" x2="-172.002" y2="379.735" gradientUnits="userSpaceOnUse">
<stop stop-color="#814E00"/>
<stop offset="1" stop-color="#C07F00"/>
</linearGradient>
<linearGradient id="paint85_linear_128_9561" x1="446.885" y1="243.882" x2="416.313" y2="76.2094" gradientUnits="userSpaceOnUse">
<stop stop-color="#814E00"/>
<stop offset="1" stop-color="#C07F00"/>
</linearGradient>
<linearGradient id="paint86_linear_128_9561" x1="623.603" y1="257.523" x2="584.793" y2="44.6655" gradientUnits="userSpaceOnUse">
<stop stop-color="#814E00"/>
<stop offset="1" stop-color="#C07F00"/>
</linearGradient>
<linearGradient id="paint87_linear_128_9561" x1="-37.0638" y1="433.285" x2="-51.0838" y2="356.473" gradientUnits="userSpaceOnUse">
<stop stop-color="#814E00"/>
<stop offset="1" stop-color="#C07F00"/>
</linearGradient>
<linearGradient id="paint88_linear_128_9561" x1="702.924" y1="191.975" x2="673.083" y2="28.3432" gradientUnits="userSpaceOnUse">
<stop stop-color="#814E00"/>
<stop offset="1" stop-color="#C07F00"/>
</linearGradient>
<linearGradient id="paint89_linear_128_9561" x1="702.924" y1="191.975" x2="673.083" y2="28.3432" gradientUnits="userSpaceOnUse">
<stop stop-color="#814E00"/>
<stop offset="1" stop-color="#C07F00"/>
</linearGradient>
<linearGradient id="paint90_linear_128_9561" x1="489.913" y1="282.711" x2="451.062" y2="69.6226" gradientUnits="userSpaceOnUse">
<stop stop-color="#814E00"/>
<stop offset="1" stop-color="#C07F00"/>
</linearGradient>
<linearGradient id="paint91_linear_128_9561" x1="17.7299" y1="677.636" x2="-41.1642" y2="354.621" gradientUnits="userSpaceOnUse">
<stop stop-color="#814E00"/>
<stop offset="1" stop-color="#C07F00"/>
</linearGradient>
<linearGradient id="paint92_linear_128_9561" x1="-79.8618" y1="426.362" x2="-91.6835" y2="361.643" gradientUnits="userSpaceOnUse">
<stop stop-color="#814E00"/>
<stop offset="1" stop-color="#C07F00"/>
</linearGradient>
<linearGradient id="paint93_linear_128_9561" x1="6.59562" y1="438.654" x2="-10.242" y2="346.416" gradientUnits="userSpaceOnUse">
<stop stop-color="#814E00"/>
<stop offset="1" stop-color="#C07F00"/>
</linearGradient>
<linearGradient id="paint94_linear_128_9561" x1="-43.4861" y1="511.034" x2="-70.9756" y2="360.331" gradientUnits="userSpaceOnUse">
<stop stop-color="#814E00"/>
<stop offset="1" stop-color="#C07F00"/>
</linearGradient>
<linearGradient id="paint95_linear_128_9561" x1="529.711" y1="274.813" x2="491.007" y2="62.5641" gradientUnits="userSpaceOnUse">
<stop stop-color="#814E00"/>
<stop offset="1" stop-color="#C07F00"/>
</linearGradient>
<linearGradient id="paint96_linear_128_9561" x1="98.296" y1="474.715" x2="86.7291" y2="411.332" gradientUnits="userSpaceOnUse">
<stop stop-color="#814E00"/>
<stop offset="1" stop-color="#C07F00"/>
</linearGradient>
<linearGradient id="paint97_linear_128_9561" x1="-145.763" y1="453.348" x2="-160.195" y2="374.332" gradientUnits="userSpaceOnUse">
<stop stop-color="#814E00"/>
<stop offset="1" stop-color="#C07F00"/>
</linearGradient>
<linearGradient id="paint98_linear_128_9561" x1="371.502" y1="370.247" x2="321.23" y2="94.5509" gradientUnits="userSpaceOnUse">
<stop stop-color="#814E00"/>
<stop offset="1" stop-color="#C07F00"/>
</linearGradient>
<linearGradient id="paint99_linear_128_9561" x1="-57.7403" y1="439.661" x2="-72.674" y2="357.82" gradientUnits="userSpaceOnUse">
<stop stop-color="#814E00"/>
<stop offset="1" stop-color="#C07F00"/>
</linearGradient>
<linearGradient id="paint100_linear_128_9561" x1="132.892" y1="414.63" x2="82.7355" y2="139.619" gradientUnits="userSpaceOnUse">
<stop stop-color="#814E00"/>
<stop offset="1" stop-color="#C07F00"/>
</linearGradient>
<linearGradient id="paint101_linear_128_9561" x1="132.309" y1="415.686" x2="91.3991" y2="191.309" gradientUnits="userSpaceOnUse">
<stop stop-color="#814E00"/>
<stop offset="1" stop-color="#C07F00"/>
</linearGradient>
<linearGradient id="paint102_linear_128_9561" x1="-67.6477" y1="696.305" x2="-151.288" y2="237.57" gradientUnits="userSpaceOnUse">
<stop stop-color="#814E00"/>
<stop offset="1" stop-color="#C07F00"/>
</linearGradient>
<linearGradient id="paint103_linear_128_9561" x1="40.1684" y1="432.49" x2="-0.580588" y2="209.028" gradientUnits="userSpaceOnUse">
<stop stop-color="#814E00"/>
<stop offset="1" stop-color="#C07F00"/>
</linearGradient>
<linearGradient id="paint104_linear_128_9561" x1="40.6545" y1="436.314" x2="38.193" y2="422.908" gradientUnits="userSpaceOnUse">
<stop stop-color="#814E00"/>
<stop offset="1" stop-color="#C07F00"/>
</linearGradient>
<linearGradient id="paint105_linear_128_9561" x1="-52.4036" y1="512.734" x2="-104.234" y2="228.477" gradientUnits="userSpaceOnUse">
<stop stop-color="#814E00"/>
<stop offset="1" stop-color="#C07F00"/>
</linearGradient>
<linearGradient id="paint106_linear_128_9561" x1="27.8047" y1="202.783" x2="18.2783" y2="150.534" gradientUnits="userSpaceOnUse">
<stop stop-color="#814E00"/>
<stop offset="1" stop-color="#C07F00"/>
</linearGradient>
<linearGradient id="paint107_linear_128_9561" x1="-111.233" y1="785.873" x2="-185.416" y2="379.009" gradientUnits="userSpaceOnUse">
<stop stop-color="#814E00"/>
<stop offset="1" stop-color="#C07F00"/>
</linearGradient>
<linearGradient id="paint108_linear_128_9561" x1="-48.661" y1="453.161" x2="-59.7762" y2="392.251" gradientUnits="userSpaceOnUse">
<stop stop-color="#814E00"/>
<stop offset="1" stop-color="#C07F00"/>
</linearGradient>
<linearGradient id="paint109_linear_128_9561" x1="-5.21974" y1="208.809" x2="-14.6911" y2="156.882" gradientUnits="userSpaceOnUse">
<stop stop-color="#814E00"/>
<stop offset="1" stop-color="#C07F00"/>
</linearGradient>
<linearGradient id="paint110_linear_128_9561" x1="138.021" y1="193.59" x2="126.531" y2="130.622" gradientUnits="userSpaceOnUse">
<stop stop-color="#814E00"/>
<stop offset="1" stop-color="#C07F00"/>
</linearGradient>
<linearGradient id="paint111_linear_128_9561" x1="-28.1339" y1="449.186" x2="-69.5946" y2="221.798" gradientUnits="userSpaceOnUse">
<stop stop-color="#814E00"/>
<stop offset="1" stop-color="#C07F00"/>
</linearGradient>
<linearGradient id="paint112_linear_128_9561" x1="10.9679" y1="763.395" x2="-56.7964" y2="391.731" gradientUnits="userSpaceOnUse">
<stop stop-color="#814E00"/>
<stop offset="1" stop-color="#C07F00"/>
</linearGradient>
<linearGradient id="paint113_linear_128_9561" x1="241.631" y1="398.256" x2="200.286" y2="171.546" gradientUnits="userSpaceOnUse">
<stop stop-color="#814E00"/>
<stop offset="1" stop-color="#C07F00"/>
</linearGradient>
<linearGradient id="paint114_linear_128_9561" x1="164.943" y1="413.024" x2="123.469" y2="185.559" gradientUnits="userSpaceOnUse">
<stop stop-color="#814E00"/>
<stop offset="1" stop-color="#C07F00"/>
</linearGradient>
<linearGradient id="paint115_linear_128_9561" x1="-15.5881" y1="977.533" x2="-120.203" y2="403.777" gradientUnits="userSpaceOnUse">
<stop stop-color="#814E00"/>
<stop offset="1" stop-color="#C07F00"/>
</linearGradient>
<linearGradient id="paint116_linear_128_9561" x1="453.108" y1="709.379" x2="351.947" y2="154.585" gradientUnits="userSpaceOnUse">
<stop stop-color="#814E00"/>
<stop offset="1" stop-color="#C07F00"/>
</linearGradient>
<linearGradient id="paint117_linear_128_9561" x1="241.621" y1="398.259" x2="202.364" y2="183.01" gradientUnits="userSpaceOnUse">
<stop stop-color="#814E00"/>
<stop offset="1" stop-color="#C07F00"/>
</linearGradient>
</defs>
</svg>
