<svg width="500" height="2088" viewBox="0 0 622 2088" fill="none" xmlns="http://www.w3.org/2000/svg">
<path d="M617.753 1352.64C620.334 1351.53 622.791 1352.99 623.333 1355.85C623.876 1358.71 622.22 1361.94 619.719 1363.02C617.219 1364.09 614.682 1362.67 614.139 1359.81C613.597 1356.94 615.172 1353.75 617.753 1352.64Z" fill="url(#paint0_linear_128_6010)"/>
<path d="M573.472 1176.42C576.132 1175.27 578.685 1176.78 579.227 1179.64C579.786 1182.59 578.05 1185.85 575.471 1186.96C572.811 1188.11 570.258 1186.6 569.716 1183.74C569.094 1180.91 570.812 1177.56 573.472 1176.42Z" fill="url(#paint1_linear_128_6010)"/>
<path opacity="0.86" d="M537.138 1522.81C539.932 1521.54 542.663 1522.92 543.185 1525.87C543.707 1528.82 541.836 1532.3 539.042 1533.57C536.248 1534.84 533.517 1533.45 532.995 1530.5C532.473 1527.55 534.344 1524.08 537.138 1522.81Z" fill="url(#paint2_linear_128_6010)"/>
<path opacity="0.6709" d="M377.642 2029.72C380.436 2028.45 383.167 2029.84 383.689 2032.79C384.211 2035.74 382.34 2039.21 379.546 2040.48C376.752 2041.75 374.021 2040.36 373.499 2037.41C372.977 2034.46 374.848 2030.99 377.642 2029.72Z" fill="url(#paint3_linear_128_6010)"/>
<path opacity="0.7591" d="M399.4 1911.92C402.276 1910.61 405.007 1912 405.545 1915.03C406.082 1918.07 404.211 1921.55 401.335 1922.85C398.459 1924.16 395.728 1922.77 395.19 1919.74C394.653 1916.7 396.606 1913.19 399.4 1911.92Z" fill="url(#paint4_linear_128_6010)"/>
<path opacity="0.6482" d="M484.5 1666.18C487.458 1664.84 490.204 1666.31 490.742 1669.35C491.295 1672.47 489.341 1675.98 486.465 1677.29C483.507 1678.63 480.761 1677.16 480.223 1674.12C479.603 1671.12 481.541 1667.52 484.5 1666.18Z" fill="url(#paint5_linear_128_6010)"/>
<path d="M514.793 1889.16C517.936 1887.81 521.057 1889.56 521.718 1893.04C522.378 1896.53 520.341 1900.5 517.198 1901.85C514.055 1903.2 510.933 1901.45 510.273 1897.97C509.612 1894.48 511.569 1890.55 514.793 1889.16Z" fill="url(#paint6_linear_128_6010)"/>
<path d="M556.695 1556.48C559.999 1555.06 563.218 1556.86 563.912 1560.53C564.607 1564.19 562.506 1568.29 559.201 1569.71C555.897 1571.13 552.678 1569.33 551.984 1565.66C551.289 1562 553.39 1557.9 556.695 1556.48Z" fill="url(#paint7_linear_128_6010)"/>
<path d="M468.825 1896.25C472.341 1894.74 474.593 1890.35 473.854 1886.45C473.115 1882.55 469.665 1880.62 466.148 1882.13C462.632 1883.64 460.38 1888.03 461.119 1891.93C461.858 1895.83 465.308 1897.77 468.825 1896.25Z" fill="url(#paint8_linear_128_6010)"/>
<g opacity="0.088319">
<path d="M718.09 1545.71L538.101 1541.55C538.021 1541.59 538.007 1541.51 538.007 1541.51C537.992 1541.43 538.072 1541.39 538.072 1541.39L718.06 1545.55C718.14 1545.51 718.155 1545.6 718.09 1545.71C718.169 1545.68 718.169 1545.68 718.09 1545.71Z" fill="url(#paint9_linear_128_6010)"/>
</g>
<g opacity="0.6236">
<path d="M641.05 1590.9C640.883 1590.98 640.703 1590.97 640.605 1590.93L537.741 1538.55C537.448 1538.41 537.374 1537.98 537.579 1537.61C537.784 1537.24 538.2 1537.04 538.493 1537.18L641.259 1589.51C641.552 1589.65 641.626 1590.08 641.421 1590.45C641.284 1590.7 641.216 1590.83 641.05 1590.9Z" fill="url(#paint10_linear_128_6010)"/>
</g>
<g opacity="0.6664">
<path d="M373.174 2035.86C373.088 2035.9 372.915 2035.98 372.813 2035.93C372.349 2035.95 372.17 2035.45 372.266 2034.93L405.139 1917.31C405.235 1916.78 405.739 1916.45 406.202 1916.43C406.666 1916.41 406.845 1916.91 406.749 1917.43L373.876 2035.05C373.764 2035.49 373.52 2035.7 373.174 2035.86Z" fill="url(#paint11_linear_128_6010)"/>
</g>
<g opacity="0.086939">
<path d="M378.652 2026.51L287.492 1989.4L287.551 1989.74L378.516 2026.75L378.599 2026.72L378.681 2026.68C378.749 2026.55 378.734 2026.47 378.652 2026.51Z" fill="url(#paint12_linear_128_6010)"/>
</g>
<g opacity="0.271">
<path d="M400.403 1912.43L277.906 1941.65L278.028 1942.27L400.446 1913.08C400.446 1913.08 400.446 1913.08 400.524 1913.04C400.68 1912.98 400.82 1912.84 400.79 1912.68C400.759 1912.53 400.558 1912.36 400.403 1912.43Z" fill="url(#paint13_linear_128_6010)"/>
</g>
<g opacity="0.1525">
<path d="M484.92 1671.92C484.842 1671.95 484.749 1671.91 484.734 1671.83C484.718 1671.76 484.779 1671.65 484.856 1671.62L641.494 1599.78C641.571 1599.75 641.664 1599.79 641.68 1599.87C641.696 1599.94 641.634 1600.05 641.557 1600.08L484.92 1671.92Z" fill="url(#paint14_linear_128_6010)"/>
</g>
<g opacity="0.080039">
<path d="M572.894 1978.51L516.084 1900.34C516.084 1900.34 515.98 1900.29 515.995 1900.38C515.995 1900.38 515.923 1900.51 516.011 1900.47L572.822 1978.64L572.91 1978.6L572.894 1978.51Z" fill="url(#paint15_linear_128_6010)"/>
</g>
<g opacity="0.5007">
<path d="M465.416 1889.65C465.261 1889.71 464.997 1889.66 464.967 1889.5C464.921 1889.27 464.968 1889.08 465.187 1888.91L635.555 1785.54C635.789 1785.44 635.96 1785.45 636.083 1785.65C636.129 1785.88 636.081 1786.07 635.863 1786.25L465.416 1889.65Z" fill="url(#paint16_linear_128_6010)"/>
</g>
<path opacity="0.040108" d="M573.432 1202.49L856.106 1059.35L607.453 1357.28L573.432 1202.49Z" fill="url(#paint17_linear_128_6010)"/>
<path opacity="0.031196" d="M718.073 1551.96L574.473 1188.64L614.815 1360.92L718.073 1551.96Z" fill="url(#paint18_linear_128_6010)"/>
<path opacity="0.028599" d="M573.489 1189.79L876.901 1104.88L847.933 1060.06L573.489 1189.79Z" fill="url(#paint19_linear_128_6010)"/>
<path opacity="0.1294" d="M718.7 1547.59L538.09 1540.83L637.938 1593.6L718.7 1547.59Z" fill="url(#paint20_linear_128_6010)"/>
<path opacity="0.1294" d="M718.7 1547.59L538.09 1540.83L637.938 1593.6L718.7 1547.59Z" fill="url(#paint21_linear_128_6010)"/>
<path opacity="0.1294" d="M718.7 1547.59L538.09 1540.83L637.938 1593.6L718.7 1547.59Z" fill="url(#paint22_linear_128_6010)"/>
<path opacity="0.011197" d="M769.663 1241.93L620.35 1599.96L897.485 1116.09L769.663 1241.93Z" fill="url(#paint23_linear_128_6010)"/>
<path opacity="0.01443" d="M484.832 1690.2L942.889 1597.31L643.472 1612.9L484.832 1690.2Z" fill="url(#paint24_linear_128_6010)"/>
<path opacity="0.1227" d="M478.798 1671.73L541.369 1534.94L641.604 1588.05L478.798 1671.73Z" fill="url(#paint25_linear_128_6010)"/>
<path opacity="0.13" d="M277.984 1948.91L285.036 1988.64L375.901 2027.85L406.13 1915.11L277.984 1948.91Z" fill="url(#paint26_linear_128_6010)"/>
<path opacity="0.13" d="M277.984 1948.91L285.036 1988.64L375.901 2027.85L406.13 1915.11L277.984 1948.91Z" fill="url(#paint27_linear_128_6010)"/>
<path opacity="0.13" d="M277.984 1948.91L285.036 1988.64L375.901 2027.85L406.13 1915.11L277.984 1948.91Z" fill="url(#paint28_linear_128_6010)"/>
<path opacity="0.059419" d="M489.801 1671.96L383.521 1917.39L554.938 1528.19L489.801 1671.96Z" fill="url(#paint29_linear_128_6010)"/>
<path opacity="0.059419" d="M489.801 1671.96L383.521 1917.39L554.938 1528.19L489.801 1671.96Z" fill="url(#paint30_linear_128_6010)"/>
<path opacity="0.072482" d="M262.048 1907.23L267.937 1940.04L394.359 1907.08L496.975 1671.73L262.048 1907.23Z" fill="url(#paint31_linear_128_6010)"/>
<path opacity="0.068586" d="M646.121 1537.33L761.314 1760.99L499.344 1895.51L646.121 1537.33Z" fill="url(#paint32_linear_128_6010)"/>
<path opacity="0.04504" d="M641.56 1538.23L760.424 1768.53L557.785 1579.42L641.56 1538.23Z" fill="url(#paint33_linear_128_6010)"/>
<path opacity="0.074716" d="M694.41 1925.49L767.268 1785.04L515.07 1909.76L566.929 1981.1L694.41 1925.49Z" fill="url(#paint34_linear_128_6010)"/>
<path opacity="0.011668" d="M686.75 1926.7L766.083 1771L560.813 1580.08L599.528 1965.96L686.75 1926.7Z" fill="url(#paint35_linear_128_6010)"/>
<path opacity="0.091391" d="M572.814 1974.92L519.264 1899.11L485.202 2014.7L572.814 1974.92Z" fill="url(#paint36_linear_128_6010)"/>
<path opacity="0.091391" d="M572.814 1974.92L519.264 1899.11L485.202 2014.7L572.814 1974.92Z" fill="url(#paint37_linear_128_6010)"/>
<path opacity="0.01" d="M473.18 2013.51L508.607 1893.68L576.792 1563.09L462.117 2018.49L473.18 2013.51Z" fill="url(#paint38_linear_128_6010)"/>
<path opacity="0.044896" d="M501.648 1895.51L636.414 1773.68L569.564 1566.04L501.648 1895.51Z" fill="url(#paint39_linear_128_6010)"/>
<path opacity="0.067824" d="M621.085 1783.8L895.266 1657.41L557.945 1588.48L621.085 1783.8Z" fill="url(#paint40_linear_128_6010)"/>
<path opacity="0.08804" d="M772.27 1893.26L635.71 1796.56L625.828 1959.7L772.27 1893.26Z" fill="url(#paint41_linear_128_6010)"/>
<path opacity="0.01" d="M674.444 1936.42L782.406 1682.12L632.981 1796.75L623.112 1959.7L674.444 1936.42Z" fill="url(#paint42_linear_128_6010)"/>
<path opacity="0.1011" d="M772.269 1886.46L639.405 1793.76L465.325 1905.24L727.681 1906.16L772.269 1886.46Z" fill="url(#paint43_linear_128_6010)"/>
<path opacity="0.1011" d="M772.269 1886.46L639.405 1793.76L465.325 1905.24L727.681 1906.16L772.269 1886.46Z" fill="url(#paint44_linear_128_6010)"/>
<defs>
<linearGradient id="paint0_linear_128_6010" x1="617.753" y1="1352.64" x2="621.829" y2="1362.11" gradientUnits="userSpaceOnUse">
<stop stop-color="#814E00"/>
<stop offset="1" stop-color="#C07F00"/>
</linearGradient>
<linearGradient id="paint1_linear_128_6010" x1="573.471" y1="1176.42" x2="577.614" y2="1186.04" gradientUnits="userSpaceOnUse">
<stop stop-color="#814E00"/>
<stop offset="1" stop-color="#C07F00"/>
</linearGradient>
<linearGradient id="paint2_linear_128_6010" x1="537.138" y1="1522.81" x2="541.514" y2="1532.44" gradientUnits="userSpaceOnUse">
<stop stop-color="#814E00"/>
<stop offset="1" stop-color="#C07F00"/>
</linearGradient>
<linearGradient id="paint3_linear_128_6010" x1="377.642" y1="2029.72" x2="382.017" y2="2039.36" gradientUnits="userSpaceOnUse">
<stop stop-color="#814E00"/>
<stop offset="1" stop-color="#C07F00"/>
</linearGradient>
<linearGradient id="paint4_linear_128_6010" x1="399.4" y1="1911.92" x2="403.846" y2="1921.71" gradientUnits="userSpaceOnUse">
<stop stop-color="#814E00"/>
<stop offset="1" stop-color="#C07F00"/>
</linearGradient>
<linearGradient id="paint5_linear_128_6010" x1="484.499" y1="1666.18" x2="489.015" y2="1676.13" gradientUnits="userSpaceOnUse">
<stop stop-color="#814E00"/>
<stop offset="1" stop-color="#C07F00"/>
</linearGradient>
<linearGradient id="paint6_linear_128_6010" x1="514.793" y1="1889.16" x2="519.778" y2="1900.74" gradientUnits="userSpaceOnUse">
<stop stop-color="#814E00"/>
<stop offset="1" stop-color="#C07F00"/>
</linearGradient>
<linearGradient id="paint7_linear_128_6010" x1="556.695" y1="1556.48" x2="561.891" y2="1568.55" gradientUnits="userSpaceOnUse">
<stop stop-color="#814E00"/>
<stop offset="1" stop-color="#C07F00"/>
</linearGradient>
<linearGradient id="paint8_linear_128_6010" x1="466.148" y1="1882.13" x2="471.695" y2="1895.02" gradientUnits="userSpaceOnUse">
<stop stop-color="#814E00"/>
<stop offset="1" stop-color="#C07F00"/>
</linearGradient>
<linearGradient id="paint9_linear_128_6010" x1="621.006" y1="1504.21" x2="652.74" y2="1575.01" gradientUnits="userSpaceOnUse">
<stop stop-color="#814E00"/>
<stop offset="1" stop-color="#C07F00"/>
</linearGradient>
<linearGradient id="paint10_linear_128_6010" x1="581.443" y1="1516.99" x2="620.335" y2="1600.54" gradientUnits="userSpaceOnUse">
<stop stop-color="#814E00"/>
<stop offset="1" stop-color="#C07F00"/>
</linearGradient>
<linearGradient id="paint11_linear_128_6010" x1="381.139" y1="1927.9" x2="420.799" y2="2013.89" gradientUnits="userSpaceOnUse">
<stop stop-color="#814E00"/>
<stop offset="1" stop-color="#C07F00"/>
</linearGradient>
<linearGradient id="paint12_linear_128_6010" x1="326.784" y1="1971.16" x2="357.192" y2="2036.65" gradientUnits="userSpaceOnUse">
<stop stop-color="#814E00"/>
<stop offset="1" stop-color="#C07F00"/>
</linearGradient>
<linearGradient id="paint13_linear_128_6010" x1="337.328" y1="1916.89" x2="345.31" y2="1936.05" gradientUnits="userSpaceOnUse">
<stop stop-color="#814E00"/>
<stop offset="1" stop-color="#C07F00"/>
</linearGradient>
<linearGradient id="paint14_linear_128_6010" x1="562.217" y1="1631.12" x2="565.718" y2="1639.98" gradientUnits="userSpaceOnUse">
<stop stop-color="#814E00"/>
<stop offset="1" stop-color="#C07F00"/>
</linearGradient>
<linearGradient id="paint15_linear_128_6010" x1="535.928" y1="1891.26" x2="575.204" y2="1977.56" gradientUnits="userSpaceOnUse">
<stop stop-color="#814E00"/>
<stop offset="1" stop-color="#C07F00"/>
</linearGradient>
<linearGradient id="paint16_linear_128_6010" x1="547.501" y1="1822.21" x2="559.304" y2="1850.55" gradientUnits="userSpaceOnUse">
<stop stop-color="#814E00"/>
<stop offset="1" stop-color="#C07F00"/>
</linearGradient>
<linearGradient id="paint17_linear_128_6010" x1="713.356" y1="1123.1" x2="782.939" y2="1278.92" gradientUnits="userSpaceOnUse">
<stop stop-color="#814E00"/>
<stop offset="1" stop-color="#C07F00"/>
</linearGradient>
<linearGradient id="paint18_linear_128_6010" x1="608.309" y1="1174.37" x2="760.138" y2="1534.21" gradientUnits="userSpaceOnUse">
<stop stop-color="#814E00"/>
<stop offset="1" stop-color="#C07F00"/>
</linearGradient>
<linearGradient id="paint19_linear_128_6010" x1="718.565" y1="1113.76" x2="738.696" y2="1162.25" gradientUnits="userSpaceOnUse">
<stop stop-color="#814E00"/>
<stop offset="1" stop-color="#C07F00"/>
</linearGradient>
<linearGradient id="paint20_linear_128_6010" x1="621.077" y1="1503.97" x2="657.103" y2="1585.09" gradientUnits="userSpaceOnUse">
<stop stop-color="#814E00"/>
<stop offset="1" stop-color="#C07F00"/>
</linearGradient>
<linearGradient id="paint21_linear_128_6010" x1="621.077" y1="1503.97" x2="657.103" y2="1585.09" gradientUnits="userSpaceOnUse">
<stop stop-color="#814E00"/>
<stop offset="1" stop-color="#C07F00"/>
</linearGradient>
<linearGradient id="paint22_linear_128_6010" x1="621.077" y1="1503.97" x2="657.103" y2="1585.09" gradientUnits="userSpaceOnUse">
<stop stop-color="#814E00"/>
<stop offset="1" stop-color="#C07F00"/>
</linearGradient>
<linearGradient id="paint23_linear_128_6010" x1="729.549" y1="1192.27" x2="864.289" y2="1489.31" gradientUnits="userSpaceOnUse">
<stop stop-color="#814E00"/>
<stop offset="1" stop-color="#C07F00"/>
</linearGradient>
<linearGradient id="paint24_linear_128_6010" x1="703.022" y1="1587.77" x2="742.706" y2="1681.8" gradientUnits="userSpaceOnUse">
<stop stop-color="#814E00"/>
<stop offset="1" stop-color="#C07F00"/>
</linearGradient>
<linearGradient id="paint25_linear_128_6010" x1="542.931" y1="1534.24" x2="583.467" y2="1624.97" gradientUnits="userSpaceOnUse">
<stop stop-color="#814E00"/>
<stop offset="1" stop-color="#C07F00"/>
</linearGradient>
<linearGradient id="paint26_linear_128_6010" x1="340.065" y1="1920.78" x2="386.412" y2="2023.09" gradientUnits="userSpaceOnUse">
<stop stop-color="#814E00"/>
<stop offset="1" stop-color="#C07F00"/>
</linearGradient>
<linearGradient id="paint27_linear_128_6010" x1="340.065" y1="1920.78" x2="386.412" y2="2023.09" gradientUnits="userSpaceOnUse">
<stop stop-color="#814E00"/>
<stop offset="1" stop-color="#C07F00"/>
</linearGradient>
<linearGradient id="paint28_linear_128_6010" x1="340.065" y1="1920.78" x2="386.412" y2="2023.09" gradientUnits="userSpaceOnUse">
<stop stop-color="#814E00"/>
<stop offset="1" stop-color="#C07F00"/>
</linearGradient>
<linearGradient id="paint29_linear_128_6010" x1="443.75" y1="1578.71" x2="560.991" y2="1836.75" gradientUnits="userSpaceOnUse">
<stop stop-color="#814E00"/>
<stop offset="1" stop-color="#C07F00"/>
</linearGradient>
<linearGradient id="paint30_linear_128_6010" x1="443.75" y1="1578.71" x2="560.991" y2="1836.75" gradientUnits="userSpaceOnUse">
<stop stop-color="#814E00"/>
<stop offset="1" stop-color="#C07F00"/>
</linearGradient>
<linearGradient id="paint31_linear_128_6010" x1="368.71" y1="1729.31" x2="439.425" y2="1886.85" gradientUnits="userSpaceOnUse">
<stop stop-color="#814E00"/>
<stop offset="1" stop-color="#C07F00"/>
</linearGradient>
<linearGradient id="paint32_linear_128_6010" x1="583.823" y1="1565.61" x2="693.544" y2="1807.37" gradientUnits="userSpaceOnUse">
<stop stop-color="#814E00"/>
<stop offset="1" stop-color="#C07F00"/>
</linearGradient>
<linearGradient id="paint33_linear_128_6010" x1="635.471" y1="1540.98" x2="742.189" y2="1776.78" gradientUnits="userSpaceOnUse">
<stop stop-color="#814E00"/>
<stop offset="1" stop-color="#C07F00"/>
</linearGradient>
<linearGradient id="paint34_linear_128_6010" x1="639.906" y1="1840.61" x2="679.731" y2="1931.89" gradientUnits="userSpaceOnUse">
<stop stop-color="#814E00"/>
<stop offset="1" stop-color="#C07F00"/>
</linearGradient>
<linearGradient id="paint35_linear_128_6010" x1="625.951" y1="1550.76" x2="776.899" y2="1886.12" gradientUnits="userSpaceOnUse">
<stop stop-color="#814E00"/>
<stop offset="1" stop-color="#C07F00"/>
</linearGradient>
<linearGradient id="paint36_linear_128_6010" x1="512.606" y1="1902.13" x2="550.298" y2="1985.15" gradientUnits="userSpaceOnUse">
<stop stop-color="#814E00"/>
<stop offset="1" stop-color="#C07F00"/>
</linearGradient>
<linearGradient id="paint37_linear_128_6010" x1="512.606" y1="1902.13" x2="550.298" y2="1985.15" gradientUnits="userSpaceOnUse">
<stop stop-color="#814E00"/>
<stop offset="1" stop-color="#C07F00"/>
</linearGradient>
<linearGradient id="paint38_linear_128_6010" x1="485.972" y1="1603.93" x2="637.011" y2="1939.85" gradientUnits="userSpaceOnUse">
<stop stop-color="#814E00"/>
<stop offset="1" stop-color="#C07F00"/>
</linearGradient>
<linearGradient id="paint39_linear_128_6010" x1="524.691" y1="1586.27" x2="636.669" y2="1834.63" gradientUnits="userSpaceOnUse">
<stop stop-color="#814E00"/>
<stop offset="1" stop-color="#C07F00"/>
</linearGradient>
<linearGradient id="paint40_linear_128_6010" x1="708.308" y1="1520.97" x2="791.886" y2="1707.11" gradientUnits="userSpaceOnUse">
<stop stop-color="#814E00"/>
<stop offset="1" stop-color="#C07F00"/>
</linearGradient>
<linearGradient id="paint41_linear_128_6010" x1="673.038" y1="1779.63" x2="732.734" y2="1911.2" gradientUnits="userSpaceOnUse">
<stop stop-color="#814E00"/>
<stop offset="1" stop-color="#C07F00"/>
</linearGradient>
<linearGradient id="paint42_linear_128_6010" x1="685.922" y1="1725.89" x2="763.165" y2="1896.18" gradientUnits="userSpaceOnUse">
<stop stop-color="#814E00"/>
<stop offset="1" stop-color="#C07F00"/>
</linearGradient>
<linearGradient id="paint43_linear_128_6010" x1="603.043" y1="1809.82" x2="658.992" y2="1936.49" gradientUnits="userSpaceOnUse">
<stop stop-color="#814E00"/>
<stop offset="1" stop-color="#C07F00"/>
</linearGradient>
<linearGradient id="paint44_linear_128_6010" x1="603.043" y1="1809.82" x2="658.992" y2="1936.49" gradientUnits="userSpaceOnUse">
<stop stop-color="#814E00"/>
<stop offset="1" stop-color="#C07F00"/>
</linearGradient>
</defs>
</svg>
