<svg width="220" height="1445" viewBox="0 0 357 1445" fill="none" xmlns="http://www.w3.org/2000/svg">
<g style="mix-blend-mode:color-dodge">
<path opacity="0.86" d="M37.9477 468.992C35.3785 468.958 33.2692 466.176 33.2771 462.831C33.285 459.486 35.4073 456.759 37.9766 456.793C40.5458 456.826 42.6552 459.608 42.6472 462.953C42.6393 466.298 40.517 469.025 37.9477 468.992Z" fill="url(#paint0_linear_128_4303)"/>
<path opacity="0.6709" d="M284.338 41.7359C281.769 41.7025 279.66 38.9204 279.668 35.5754C279.676 32.2305 281.798 29.5033 284.367 29.5367C286.936 29.5702 289.046 32.3524 289.038 35.6973C289.03 39.0423 286.908 41.7693 284.338 41.7359Z" fill="url(#paint1_linear_128_4303)"/>
<path opacity="0.7591" d="M240.907 146.768C238.263 146.734 236.153 143.952 236.161 140.508C236.169 137.065 238.292 134.338 240.937 134.372C243.581 134.407 245.691 137.189 245.683 140.632C245.674 144.075 243.477 146.802 240.907 146.768Z" fill="url(#paint2_linear_128_4303)"/>
<path opacity="0.6482" d="M114.443 350.988C111.723 350.952 109.614 348.072 109.622 344.629C109.63 341.087 111.828 338.361 114.473 338.395C117.193 338.431 119.302 341.311 119.294 344.754C119.362 348.199 117.164 351.023 114.443 350.988Z" fill="url(#paint3_linear_128_4303)"/>
<path d="M132.048 125.269C129.105 125.239 126.701 122.059 126.713 118.214C126.726 114.369 129.152 111.239 132.095 111.27C135.038 111.3 137.443 114.48 137.43 118.325C137.417 122.17 135.067 125.3 132.048 125.269Z" fill="url(#paint4_linear_128_4303)"/>
<path d="M27.0521 429.212C23.958 429.18 21.4785 425.901 21.4921 421.859C21.5056 417.817 24.007 414.589 27.1012 414.621C30.1953 414.653 32.6748 417.932 32.6612 421.974C32.6477 426.016 30.1463 429.244 27.0521 429.212Z" fill="url(#paint5_linear_128_4303)"/>
<path d="M3.82182 187.053C0.652196 187.021 -1.97788 183.642 -1.96364 179.402C-1.94972 175.262 0.627749 171.838 3.87284 171.871C7.04247 171.904 9.67257 175.283 9.65832 179.522C9.56861 183.761 6.99145 187.086 3.82182 187.053Z" fill="url(#paint6_linear_128_4303)"/>
<path d="M174.633 134.721C171.341 134.687 168.66 138.147 168.645 142.448C168.631 146.749 171.288 150.264 174.581 150.298C177.874 150.332 180.555 146.872 180.569 142.571C180.584 138.27 177.926 134.755 174.633 134.721Z" fill="url(#paint7_linear_128_4303)"/>
<g opacity="0.088319">
<path d="M-118.684 365.839L38.2529 462.794C38.3284 462.795 38.3283 462.893 38.3283 462.893C38.3281 462.99 38.2526 462.989 38.2526 462.989L-118.684 366.033C-118.76 366.032 -118.76 365.935 -118.684 365.839C-118.76 365.837 -118.76 365.837 -118.684 365.839Z" fill="url(#paint8_linear_128_4303)"/>
</g>
<g opacity="0.6236">
<path d="M-40.7572 354.616C-40.6059 354.618 -40.4547 354.719 -40.3792 354.818L38.6677 462.408C38.8942 462.706 38.8935 463.197 38.6661 463.487C38.4386 463.778 38.0603 463.772 37.8338 463.474L-41.1376 355.984C-41.3641 355.686 -41.3633 355.195 -41.1359 354.904C-40.9843 354.711 -40.9085 354.614 -40.7572 354.616Z" fill="url(#paint9_linear_128_4303)"/>
</g>
<g opacity="0.6664">
<path d="M284.353 35.1076C284.429 35.1088 284.581 35.1113 284.657 35.2109C285.036 35.4139 285.111 36.0057 284.958 36.4954L241.534 140.716C241.381 141.206 240.926 141.297 240.546 141.094C240.167 140.891 240.092 140.299 240.245 139.81L283.669 35.5887C283.822 35.1975 284.05 35.1027 284.353 35.1076Z" fill="url(#paint10_linear_128_4303)"/>
</g>
<g opacity="0.086939">
<path d="M284.016 35.7338L355.949 121.836L355.95 121.444L284.168 35.5401L284.092 35.5389L284.017 35.5377C283.941 35.6345 283.941 35.7326 284.016 35.7338Z" fill="url(#paint11_linear_128_4303)"/>
</g>
<g opacity="0.271">
<path d="M240.769 140.941L355.559 167.66L355.56 166.896L240.845 140.178C240.845 140.178 240.845 140.178 240.77 140.177C240.619 140.175 240.468 140.268 240.468 140.459C240.468 140.65 240.618 140.939 240.769 140.941Z" fill="url(#paint12_linear_128_4303)"/>
</g>
<g opacity="0.1525">
<path d="M114.457 345.476C114.533 345.477 114.608 345.569 114.608 345.66C114.607 345.751 114.532 345.84 114.457 345.839L-40.4366 354.617C-40.512 354.616 -40.5872 354.524 -40.587 354.433C-40.5869 354.342 -40.5113 354.252 -40.4359 354.253L114.457 345.476Z" fill="url(#paint13_linear_128_4303)"/>
</g>
<g opacity="0.080039">
<path d="M98.103 12.5187L132.312 118.267C132.312 118.267 132.388 118.367 132.388 118.268C132.388 118.268 132.464 118.171 132.388 118.17L98.1792 12.4215L98.1032 12.4203L98.103 12.5187Z" fill="url(#paint14_linear_128_4303)"/>
</g>
<g opacity="0.3811">
<path d="M-97.2324 10.9622L-97.9896 10.95L4.05087 179.753C4.12628 179.951 4.35345 179.954 4.42932 179.857C4.58092 179.761 4.58138 179.467 4.50581 179.367L-97.2324 10.9622Z" fill="url(#paint15_linear_128_4303)"/>
</g>
<g opacity="0.5007">
<path d="M174.608 143.31C174.759 143.312 174.985 143.507 174.985 143.698C174.984 143.985 174.909 144.174 174.682 144.266L3.84412 178.665C3.61792 178.661 3.46727 178.563 3.39236 178.275C3.39284 177.989 3.46858 177.799 3.69492 177.707L174.608 143.31Z" fill="url(#paint16_linear_128_4303)"/>
</g>
<path opacity="0.1294" d="M-118.605 365.857L38.2031 462.893L-40.5522 355.791L-118.605 365.857Z" fill="url(#paint17_linear_128_4303)"/>
<path opacity="0.1294" d="M-118.605 365.857L38.2031 462.893L-40.5522 355.791L-118.605 365.857Z" fill="url(#paint18_linear_128_4303)"/>
<path opacity="0.1294" d="M-118.605 365.857L38.2031 462.893L-40.5522 355.791L-118.605 365.857Z" fill="url(#paint19_linear_128_4303)"/>
<path opacity="0.01443" d="M114.712 344.883L-309.874 225.248L-40.2568 354.65L114.712 344.883Z" fill="url(#paint20_linear_128_4303)"/>
<path opacity="0.1227" d="M114.456 345.466L38.0969 462.512L-40.6736 355.324L114.456 345.466Z" fill="url(#paint21_linear_128_4303)"/>
<path opacity="0.13" d="M355.773 167.266L355.881 121.839L284.17 35.8527L240.866 140.107L355.773 167.266Z" fill="url(#paint22_linear_128_4303)"/>
<path opacity="0.13" d="M355.773 167.266L355.881 121.839L284.17 35.8527L240.866 140.107L355.773 167.266Z" fill="url(#paint23_linear_128_4303)"/>
<path opacity="0.13" d="M355.773 167.266L355.881 121.839L284.17 35.8527L240.866 140.107L355.773 167.266Z" fill="url(#paint24_linear_128_4303)"/>
<path opacity="0.059419" d="M114.465 344.431L240.924 141.59L37.9648 461.875L114.465 344.431Z" fill="url(#paint25_linear_128_4303)"/>
<path opacity="0.059419" d="M114.465 344.431L240.924 141.59L37.9648 461.875L114.465 344.431Z" fill="url(#paint26_linear_128_4303)"/>
<path opacity="0.072482" d="M355.449 206.51L355.54 168.317L240.705 141.199L114.457 343.486L355.449 206.51Z" fill="url(#paint27_linear_128_4303)"/>
<path opacity="0.068586" d="M-47.8811 423.774L-111.646 132.752L132.069 119.494L-47.8811 423.774Z" fill="url(#paint28_linear_128_4303)"/>
<path opacity="0.04504" d="M-47.7612 424.294L-111.641 132.816L27.715 421.926L-47.7612 424.294Z" fill="url(#paint29_linear_128_4303)"/>
<path opacity="0.074716" d="M-23.2858 11.9769L-110.998 131.612L132.305 118.43L98.459 13.5525L-23.2858 11.9769Z" fill="url(#paint30_linear_128_4303)"/>
<path opacity="0.011668" d="M-23.5373 11.9865L-111.635 132.567L27.8451 421.79L53.6649 12.9898L-23.5373 11.9865Z" fill="url(#paint31_linear_128_4303)"/>
<path opacity="0.091391" d="M98.2613 12.5196L132.169 118.035L178.815 13.5676L98.2613 12.5196Z" fill="url(#paint32_linear_128_4303)"/>
<path opacity="0.091391" d="M98.2613 12.5196L132.169 118.035L178.815 13.5676L98.2613 12.5196Z" fill="url(#paint33_linear_128_4303)"/>
<path opacity="0.01" d="M178.761 13.92L131.986 118.584L27.0763 421.108L188.536 14.047L178.761 13.92Z" fill="url(#paint34_linear_128_4303)"/>
<path opacity="0.044896" d="M132.071 118.916L3.31231 179.331L27.2046 421.392L132.071 118.916Z" fill="url(#paint35_linear_128_4303)"/>
<path opacity="0.067824" d="M3.80052 180.752L-253.857 180.938L27.6133 421.916L3.80052 180.752Z" fill="url(#paint36_linear_128_4303)"/>
<path opacity="0.08804" d="M-97.399 10.9536L4.12956 179.296L37.6178 12.7101L-97.399 10.9536Z" fill="url(#paint37_linear_128_4303)"/>
<path opacity="0.1116" d="M-142.378 11.1428L-253.327 179.676L4.21932 179.489L-97.1782 11.7293L-142.378 11.1428Z" fill="url(#paint38_linear_128_4303)"/>
<path opacity="0.1116" d="M-142.378 11.1428L-253.327 179.676L4.21932 179.489L-97.1782 11.7293L-142.378 11.1428Z" fill="url(#paint39_linear_128_4303)"/>
<path opacity="0.01" d="M-9.75718 12.3106L-140.973 226.988L4.12689 179.501L37.6135 12.9269L-9.75718 12.3106Z" fill="url(#paint40_linear_128_4303)"/>
<path opacity="0.1011" d="M-97.3993 10.9538L3.98673 178.613L174.895 142.819L-55.0721 11.5026L-97.3993 10.9538Z" fill="url(#paint41_linear_128_4303)"/>
<path opacity="0.1011" d="M-97.3993 10.9538L3.98673 178.613L174.895 142.819L-55.0721 11.5026L-97.3993 10.9538Z" fill="url(#paint42_linear_128_4303)"/>
<path opacity="0.061671" d="M-298.385 9.34655L-140.719 227.161L4.21841 179.808L-288.65 9.47293L-298.385 9.34655Z" fill="url(#paint43_linear_128_4303)"/>
</g>
<defs>
<linearGradient id="paint0_linear_128_4303" x1="37.9477" y1="468.992" x2="38.1064" y2="456.794" gradientUnits="userSpaceOnUse">
<stop stop-color="#814E00"/>
<stop offset="1" stop-color="#C07F00"/>
</linearGradient>
<linearGradient id="paint1_linear_128_4303" x1="284.338" y1="41.7359" x2="284.497" y2="29.5384" gradientUnits="userSpaceOnUse">
<stop stop-color="#814E00"/>
<stop offset="1" stop-color="#C07F00"/>
</linearGradient>
<linearGradient id="paint2_linear_128_4303" x1="240.907" y1="146.768" x2="241.069" y2="134.374" gradientUnits="userSpaceOnUse">
<stop stop-color="#814E00"/>
<stop offset="1" stop-color="#C07F00"/>
</linearGradient>
<linearGradient id="paint3_linear_128_4303" x1="114.444" y1="350.988" x2="114.608" y2="338.397" gradientUnits="userSpaceOnUse">
<stop stop-color="#814E00"/>
<stop offset="1" stop-color="#C07F00"/>
</linearGradient>
<linearGradient id="paint4_linear_128_4303" x1="132.048" y1="125.269" x2="132.192" y2="111.271" gradientUnits="userSpaceOnUse">
<stop stop-color="#814E00"/>
<stop offset="1" stop-color="#C07F00"/>
</linearGradient>
<linearGradient id="paint5_linear_128_4303" x1="27.0521" y1="429.212" x2="27.2025" y2="414.622" gradientUnits="userSpaceOnUse">
<stop stop-color="#814E00"/>
<stop offset="1" stop-color="#C07F00"/>
</linearGradient>
<linearGradient id="paint6_linear_128_4303" x1="3.82183" y1="187.053" x2="3.97835" y2="171.872" gradientUnits="userSpaceOnUse">
<stop stop-color="#814E00"/>
<stop offset="1" stop-color="#C07F00"/>
</linearGradient>
<linearGradient id="paint7_linear_128_4303" x1="174.581" y1="150.298" x2="174.742" y2="134.722" gradientUnits="userSpaceOnUse">
<stop stop-color="#814E00"/>
<stop offset="1" stop-color="#C07F00"/>
</linearGradient>
<linearGradient id="paint8_linear_128_4303" x1="-40.2809" y1="461.73" x2="-38.7638" y2="367.12" gradientUnits="userSpaceOnUse">
<stop stop-color="#814E00"/>
<stop offset="1" stop-color="#C07F00"/>
</linearGradient>
<linearGradient id="paint9_linear_128_4303" x1="-1.31866" y1="463.062" x2="0.422486" y2="355.281" gradientUnits="userSpaceOnUse">
<stop stop-color="#814E00"/>
<stop offset="1" stop-color="#C07F00"/>
</linearGradient>
<linearGradient id="paint10_linear_128_4303" x1="262.518" y1="141.544" x2="264.241" y2="34.7831" gradientUnits="userSpaceOnUse">
<stop stop-color="#814E00"/>
<stop offset="1" stop-color="#C07F00"/>
</linearGradient>
<linearGradient id="paint11_linear_128_4303" x1="319.888" y1="121.254" x2="321.263" y2="36.1391" gradientUnits="userSpaceOnUse">
<stop stop-color="#814E00"/>
<stop offset="1" stop-color="#C07F00"/>
</linearGradient>
<linearGradient id="paint12_linear_128_4303" x1="297.992" y1="166.764" x2="298.392" y2="141.074" gradientUnits="userSpaceOnUse">
<stop stop-color="#814E00"/>
<stop offset="1" stop-color="#C07F00"/>
</linearGradient>
<linearGradient id="paint13_linear_128_4303" x1="36.9993" y1="355.727" x2="37.1622" y2="344.367" gradientUnits="userSpaceOnUse">
<stop stop-color="#814E00"/>
<stop offset="1" stop-color="#C07F00"/>
</linearGradient>
<linearGradient id="paint14_linear_128_4303" x1="115.18" y1="118.035" x2="116.875" y2="12.7224" gradientUnits="userSpaceOnUse">
<stop stop-color="#814E00"/>
<stop offset="1" stop-color="#C07F00"/>
</linearGradient>
<linearGradient id="paint15_linear_128_4303" x1="-46.8475" y1="179.093" x2="-44.1448" y2="11.82" gradientUnits="userSpaceOnUse">
<stop stop-color="#814E00"/>
<stop offset="1" stop-color="#C07F00"/>
</linearGradient>
<linearGradient id="paint16_linear_128_4303" x1="89.1568" y1="179.992" x2="89.748" y2="141.99" gradientUnits="userSpaceOnUse">
<stop stop-color="#814E00"/>
<stop offset="1" stop-color="#C07F00"/>
</linearGradient>
<linearGradient id="paint17_linear_128_4303" x1="-40.3137" y1="461.874" x2="-38.9373" y2="355.812" gradientUnits="userSpaceOnUse">
<stop stop-color="#814E00"/>
<stop offset="1" stop-color="#C07F00"/>
</linearGradient>
<linearGradient id="paint18_linear_128_4303" x1="-40.3137" y1="461.874" x2="-38.9373" y2="355.812" gradientUnits="userSpaceOnUse">
<stop stop-color="#814E00"/>
<stop offset="1" stop-color="#C07F00"/>
</linearGradient>
<linearGradient id="paint19_linear_128_4303" x1="-40.3137" y1="461.874" x2="-38.9373" y2="355.812" gradientUnits="userSpaceOnUse">
<stop stop-color="#814E00"/>
<stop offset="1" stop-color="#C07F00"/>
</linearGradient>
<linearGradient id="paint20_linear_128_4303" x1="-97.7468" y1="353.912" x2="-96.1293" y2="227.994" gradientUnits="userSpaceOnUse">
<stop stop-color="#814E00"/>
<stop offset="1" stop-color="#C07F00"/>
</linearGradient>
<linearGradient id="paint21_linear_128_4303" x1="36.6252" y1="462.493" x2="38.1579" y2="344.475" gradientUnits="userSpaceOnUse">
<stop stop-color="#814E00"/>
<stop offset="1" stop-color="#C07F00"/>
</linearGradient>
<linearGradient id="paint22_linear_128_4303" x1="298.289" y1="166.518" x2="299.986" y2="36.0585" gradientUnits="userSpaceOnUse">
<stop stop-color="#814E00"/>
<stop offset="1" stop-color="#C07F00"/>
</linearGradient>
<linearGradient id="paint23_linear_128_4303" x1="298.289" y1="166.518" x2="299.986" y2="36.0585" gradientUnits="userSpaceOnUse">
<stop stop-color="#814E00"/>
<stop offset="1" stop-color="#C07F00"/>
</linearGradient>
<linearGradient id="paint24_linear_128_4303" x1="298.289" y1="166.518" x2="299.986" y2="36.0585" gradientUnits="userSpaceOnUse">
<stop stop-color="#814E00"/>
<stop offset="1" stop-color="#C07F00"/>
</linearGradient>
<linearGradient id="paint25_linear_128_4303" x1="139.062" y1="463.191" x2="143.263" y2="140.319" gradientUnits="userSpaceOnUse">
<stop stop-color="#814E00"/>
<stop offset="1" stop-color="#C07F00"/>
</linearGradient>
<linearGradient id="paint26_linear_128_4303" x1="139.062" y1="463.191" x2="143.263" y2="140.319" gradientUnits="userSpaceOnUse">
<stop stop-color="#814E00"/>
<stop offset="1" stop-color="#C07F00"/>
</linearGradient>
<linearGradient id="paint27_linear_128_4303" x1="234.787" y1="345.05" x2="237.436" y2="141.157" gradientUnits="userSpaceOnUse">
<stop stop-color="#814E00"/>
<stop offset="1" stop-color="#C07F00"/>
</linearGradient>
<linearGradient id="paint28_linear_128_4303" x1="9.50562" y1="424.52" x2="13.494" y2="117.952" gradientUnits="userSpaceOnUse">
<stop stop-color="#814E00"/>
<stop offset="1" stop-color="#C07F00"/>
</linearGradient>
<linearGradient id="paint29_linear_128_4303" x1="-42.3111" y1="424.365" x2="-38.5321" y2="133.767" gradientUnits="userSpaceOnUse">
<stop stop-color="#814E00"/>
<stop offset="1" stop-color="#C07F00"/>
</linearGradient>
<linearGradient id="paint30_linear_128_4303" x1="10.634" y1="133.186" x2="12.1967" y2="12.4361" gradientUnits="userSpaceOnUse">
<stop stop-color="#814E00"/>
<stop offset="1" stop-color="#C07F00"/>
</linearGradient>
<linearGradient id="paint31_linear_128_4303" x1="-29.8103" y1="421.041" x2="-24.4943" y2="11.974" gradientUnits="userSpaceOnUse">
<stop stop-color="#814E00"/>
<stop offset="1" stop-color="#C07F00"/>
</linearGradient>
<linearGradient id="paint32_linear_128_4303" x1="138.29" y1="118.115" x2="139.656" y2="13.0582" gradientUnits="userSpaceOnUse">
<stop stop-color="#814E00"/>
<stop offset="1" stop-color="#C07F00"/>
</linearGradient>
<linearGradient id="paint33_linear_128_4303" x1="138.29" y1="118.115" x2="139.656" y2="13.0582" gradientUnits="userSpaceOnUse">
<stop stop-color="#814E00"/>
<stop offset="1" stop-color="#C07F00"/>
</linearGradient>
<linearGradient id="paint34_linear_128_4303" x1="107.321" y1="422.151" x2="112.637" y2="13.0608" gradientUnits="userSpaceOnUse">
<stop stop-color="#814E00"/>
<stop offset="1" stop-color="#C07F00"/>
</linearGradient>
<linearGradient id="paint35_linear_128_4303" x1="67.0456" y1="421.91" x2="70.9943" y2="118.122" gradientUnits="userSpaceOnUse">
<stop stop-color="#814E00"/>
<stop offset="1" stop-color="#C07F00"/>
</linearGradient>
<linearGradient id="paint36_linear_128_4303" x1="-113.403" y1="420.084" x2="-110.274" y2="179.269" gradientUnits="userSpaceOnUse">
<stop stop-color="#814E00"/>
<stop offset="1" stop-color="#C07F00"/>
</linearGradient>
<linearGradient id="paint37_linear_128_4303" x1="-30.2857" y1="178.848" x2="-28.1132" y2="11.855" gradientUnits="userSpaceOnUse">
<stop stop-color="#814E00"/>
<stop offset="1" stop-color="#C07F00"/>
</linearGradient>
<linearGradient id="paint38_linear_128_4303" x1="-124.558" y1="181.347" x2="-122.353" y2="11.4026" gradientUnits="userSpaceOnUse">
<stop stop-color="#814E00"/>
<stop offset="1" stop-color="#C07F00"/>
</linearGradient>
<linearGradient id="paint39_linear_128_4303" x1="-124.558" y1="181.347" x2="-122.353" y2="11.4026" gradientUnits="userSpaceOnUse">
<stop stop-color="#814E00"/>
<stop offset="1" stop-color="#C07F00"/>
</linearGradient>
<linearGradient id="paint40_linear_128_4303" x1="-51.9356" y1="228.146" x2="-49.1211" y2="11.7985" gradientUnits="userSpaceOnUse">
<stop stop-color="#814E00"/>
<stop offset="1" stop-color="#C07F00"/>
</linearGradient>
<linearGradient id="paint41_linear_128_4303" x1="38.5049" y1="179.061" x2="40.6616" y2="12.744" gradientUnits="userSpaceOnUse">
<stop stop-color="#814E00"/>
<stop offset="1" stop-color="#C07F00"/>
</linearGradient>
<linearGradient id="paint42_linear_128_4303" x1="38.5049" y1="179.061" x2="40.6616" y2="12.744" gradientUnits="userSpaceOnUse">
<stop stop-color="#814E00"/>
<stop offset="1" stop-color="#C07F00"/>
</linearGradient>
<linearGradient id="paint43_linear_128_4303" x1="-147.398" y1="227.074" x2="-144.597" y2="11.343" gradientUnits="userSpaceOnUse">
<stop stop-color="#814E00"/>
<stop offset="1" stop-color="#C07F00"/>
</linearGradient>
</defs>
</svg>
