<svg width="300" height="1699" viewBox="0 0 395 1699" fill="none" xmlns="http://www.w3.org/2000/svg">
<path opacity="0.86" d="M377.666 1015.4C380.48 1015.97 382.661 1019.04 382.496 1022.19C382.33 1025.33 379.876 1027.45 377.063 1026.88C374.249 1026.3 372.068 1023.23 372.233 1020.09C372.399 1016.94 374.852 1014.82 377.666 1015.4Z" fill="url(#paint0_linear_128_7683)"/>
<path opacity="0.6709" d="M84.4671 1404.06C87.2809 1404.63 89.4619 1407.7 89.2964 1410.85C89.1309 1414 86.6773 1416.11 83.8634 1415.54C81.0496 1414.96 78.8686 1411.89 79.0341 1408.75C79.1996 1405.6 81.6532 1403.48 84.4671 1404.06Z" fill="url(#paint1_linear_128_7683)"/>
<path opacity="0.7591" d="M138.44 1306.04C141.337 1306.63 143.518 1309.7 143.348 1312.94C143.177 1316.18 140.724 1318.3 137.827 1317.7C134.93 1317.11 132.749 1314.04 132.92 1310.8C133.09 1307.56 135.627 1305.46 138.44 1306.04Z" fill="url(#paint2_linear_128_7683)"/>
<path opacity="0.6482" d="M287.764 1121.53C290.743 1122.14 292.919 1125.3 292.749 1128.54C292.573 1131.87 290.037 1133.97 287.14 1133.38C284.161 1132.77 281.985 1129.61 282.155 1126.37C282.243 1123.12 284.784 1120.92 287.764 1121.53Z" fill="url(#paint3_linear_128_7683)"/>
<path d="M251.807 1343.02C254.984 1343.58 257.394 1347.08 257.153 1350.79C256.913 1354.5 254.109 1357.09 250.931 1356.53C247.754 1355.96 245.345 1352.46 245.586 1348.75C245.826 1345.04 248.549 1342.44 251.807 1343.02Z" fill="url(#paint4_linear_128_7683)"/>
<path d="M386.153 1056.37C389.493 1056.96 391.978 1060.57 391.725 1064.47C391.472 1068.37 388.58 1071.04 385.24 1070.45C381.901 1069.86 379.416 1066.24 379.669 1062.34C379.921 1058.44 382.813 1055.78 386.153 1056.37Z" fill="url(#paint5_linear_128_7683)"/>
<path d="M391.984 1300.23C395.405 1300.84 398.046 1304.57 397.781 1308.66C397.522 1312.66 394.537 1315.5 391.034 1314.88C387.612 1314.28 384.971 1310.54 385.236 1306.45C385.583 1302.37 388.562 1299.63 391.984 1300.23Z" fill="url(#paint6_linear_128_7683)"/>
<path d="M207.832 1327.06C211.386 1327.69 214.486 1324.83 214.755 1320.68C215.024 1316.53 212.361 1312.66 208.807 1312.03C205.252 1311.4 202.153 1314.26 201.884 1318.41C201.615 1322.56 204.278 1326.43 207.832 1327.06Z" fill="url(#paint7_linear_128_7683)"/>
<g opacity="0.088319">
<path d="M538.866 1140.15L373.495 1021.22C373.414 1021.2 373.418 1021.11 373.418 1021.11C373.422 1021.03 373.503 1021.05 373.503 1021.05L538.874 1139.98C538.955 1139.99 538.951 1140.08 538.866 1140.15C538.947 1140.16 538.947 1140.16 538.866 1140.15Z" fill="url(#paint8_linear_128_7683)"/>
</g>
<g opacity="0.6236">
<path d="M456.289 1139.96C456.121 1139.92 455.958 1139.79 455.878 1139.68L372.464 1021.49C372.224 1021.16 372.244 1020.71 372.508 1020.49C372.771 1020.28 373.19 1020.37 373.429 1020.7L456.764 1138.79C457.003 1139.12 456.983 1139.57 456.72 1139.79C456.544 1139.93 456.457 1140 456.289 1139.96Z" fill="url(#paint9_linear_128_7683)"/>
</g>
<g opacity="0.6664">
<path d="M84.1569 1405.94C84.0702 1405.92 83.8967 1405.89 83.8141 1405.77C83.3886 1405.49 83.3269 1404.91 83.5213 1404.48L137.426 1315.93C137.621 1315.5 138.145 1315.53 138.571 1315.81C138.996 1316.1 139.058 1316.68 138.864 1317.11L84.9587 1405.65C84.7684 1405.99 84.504 1406.02 84.1569 1405.94Z" fill="url(#paint10_linear_128_7683)"/>
</g>
<g opacity="0.086939">
<path d="M87.8251 1409.72L11.8984 1313.87L11.8825 1314.23L87.6506 1409.86L87.7339 1409.88L87.8172 1409.9C87.9044 1409.83 87.9084 1409.74 87.8251 1409.72Z" fill="url(#paint11_linear_128_7683)"/>
</g>
<g opacity="0.271">
<path d="M139.128 1311.63L18.332 1268.39L18.2943 1269.02L139.01 1312.25C139.01 1312.25 139.01 1312.25 139.09 1312.26C139.25 1312.29 139.415 1312.24 139.424 1312.08C139.434 1311.93 139.288 1311.66 139.128 1311.63Z" fill="url(#paint12_linear_128_7683)"/>
</g>
<g opacity="0.1525">
<path d="M287.436 1124.84C287.356 1124.83 287.282 1124.74 287.287 1124.67C287.293 1124.59 287.378 1124.53 287.457 1124.54L451.874 1141.85C451.953 1141.86 452.028 1141.95 452.022 1142.02C452.017 1142.1 451.932 1142.16 451.852 1142.15L287.436 1124.84Z" fill="url(#paint13_linear_128_7683)"/>
</g>
<g opacity="0.080039">
<path d="M282.759 1459.67L247.442 1349.79C247.442 1349.79 247.358 1349.68 247.354 1349.77C247.354 1349.77 247.261 1349.85 247.349 1349.87L282.667 1459.74L282.755 1459.76L282.759 1459.67Z" fill="url(#paint14_linear_128_7683)"/>
</g>
<g opacity="0.3811">
<path d="M491.617 1489.38L492.463 1489.57L384.936 1307.35C384.859 1307.15 384.605 1307.09 384.517 1307.16C384.343 1307.21 384.331 1307.49 384.412 1307.6L491.617 1489.38Z" fill="url(#paint15_linear_128_7683)"/>
</g>
<g opacity="0.5007">
<path d="M208.279 1312.4C208.119 1312.37 207.888 1312.17 207.897 1312.02C207.912 1311.78 208.001 1311.64 208.246 1311.6L391.544 1314.69C391.785 1314.73 391.94 1314.84 392.006 1315.09C391.992 1315.33 391.902 1315.47 391.657 1315.51L208.279 1312.4Z" fill="url(#paint16_linear_128_7683)"/>
</g>
<path opacity="0.1294" d="M538.142 1141.07L373.855 1021.14L453.621 1134.4L538.142 1141.07Z" fill="url(#paint17_linear_128_7683)"/>
<path opacity="0.1294" d="M538.142 1141.07L373.855 1021.14L453.621 1134.4L538.142 1141.07Z" fill="url(#paint18_linear_128_7683)"/>
<path opacity="0.1294" d="M538.142 1141.07L373.855 1021.14L453.621 1134.4L538.142 1141.07Z" fill="url(#paint19_linear_128_7683)"/>
<path opacity="0.01443" d="M283.88 1125.71L730.005 1307.44L449.356 1146.06L283.88 1125.71Z" fill="url(#paint20_linear_128_7683)"/>
<path opacity="0.1227" d="M287.453 1117.51L375.37 1026.02L455.377 1140.24L287.453 1117.51Z" fill="url(#paint21_linear_128_7683)"/>
<path opacity="0.13" d="M14.8984 1268.78L12.6564 1311.25L86.865 1406.77L138.983 1318.37L14.8984 1268.78Z" fill="url(#paint22_linear_128_7683)"/>
<path opacity="0.13" d="M14.8984 1268.78L12.6564 1311.25L86.865 1406.77L138.983 1318.37L14.8984 1268.78Z" fill="url(#paint23_linear_128_7683)"/>
<path opacity="0.13" d="M14.8984 1268.78L12.6564 1311.25L86.865 1406.77L138.983 1318.37L14.8984 1268.78Z" fill="url(#paint24_linear_128_7683)"/>
<path opacity="0.059419" d="M287.345 1131.3L138.132 1296.88L377.362 1036.12L287.345 1131.3Z" fill="url(#paint25_linear_128_7683)"/>
<path opacity="0.059419" d="M287.345 1131.3L138.132 1296.88L377.362 1036.12L287.345 1131.3Z" fill="url(#paint26_linear_128_7683)"/>
<path opacity="0.072482" d="M20.2453 1219.74L18.3603 1254.9L141.364 1303.57L287.454 1143.34L20.2453 1219.74Z" fill="url(#paint27_linear_128_7683)"/>
<path opacity="0.068586" d="M462.589 1084.38L518.747 1371.44L251.367 1332.32L462.589 1084.38Z" fill="url(#paint28_linear_128_7683)"/>
<path opacity="0.04504" d="M461.018 1077.28L518.391 1370.5L376.604 1063.28L461.018 1077.28Z" fill="url(#paint29_linear_128_7683)"/>
<path opacity="0.074716" d="M409.539 1473.35L509.194 1384.05L247.964 1347.94L279.213 1448L409.539 1473.35Z" fill="url(#paint30_linear_128_7683)"/>
<path opacity="0.011668" d="M412.933 1471.47L518.077 1374.28L374.958 1065.32L325.98 1453.81L412.933 1471.47Z" fill="url(#paint31_linear_128_7683)"/>
<path opacity="0.091391" d="M282.115 1459.65L249.904 1353.12L193.886 1441.59L282.115 1459.65Z" fill="url(#paint32_linear_128_7683)"/>
<path opacity="0.091391" d="M282.115 1459.65L249.904 1353.12L193.886 1441.59L282.115 1459.65Z" fill="url(#paint33_linear_128_7683)"/>
<path opacity="0.01" d="M194.652 1435.79L252.545 1344.93L385.697 1075.76L183.626 1433.56L194.652 1435.79Z" fill="url(#paint34_linear_128_7683)"/>
<path opacity="0.044896" d="M251.371 1339.91L399.035 1309.57L383.901 1071.39L251.371 1339.91Z" fill="url(#paint35_linear_128_7683)"/>
<path opacity="0.067824" d="M392.199 1290.52L671.095 1343.56L377.707 1063.41L392.199 1290.52Z" fill="url(#paint36_linear_128_7683)"/>
<path opacity="0.08804" d="M490.533 1489.5L387.353 1309.92L342.917 1459.3L490.533 1489.5Z" fill="url(#paint37_linear_128_7683)"/>
<path opacity="0.1116" d="M535.871 1489.59L663.223 1359.13L386.012 1307.23L487.25 1479.92L535.871 1489.59Z" fill="url(#paint38_linear_128_7683)"/>
<path opacity="0.1116" d="M535.871 1489.59L663.223 1359.13L386.012 1307.23L487.25 1479.92L535.871 1489.59Z" fill="url(#paint39_linear_128_7683)"/>
<path opacity="0.01" d="M394.679 1466.85L548.187 1293.11L387.328 1307.02L342.918 1456.27L394.679 1466.85Z" fill="url(#paint40_linear_128_7683)"/>
<path opacity="0.1011" d="M490.51 1489.5L389.464 1317.8L204.092 1315.81L445.045 1480.51L490.51 1489.5Z" fill="url(#paint41_linear_128_7683)"/>
<path opacity="0.1011" d="M490.51 1489.5L389.464 1317.8L204.092 1315.81L445.045 1480.51L490.51 1489.5Z" fill="url(#paint42_linear_128_7683)"/>
<path opacity="0.061671" d="M704.189 1520.17L544.461 1289.54L385.999 1303.2L693.7 1518.07L704.189 1520.17Z" fill="url(#paint43_linear_128_7683)"/>
<defs>
<linearGradient id="paint0_linear_128_7683" x1="377.666" y1="1015.4" x2="375.386" y2="1026.53" gradientUnits="userSpaceOnUse">
<stop stop-color="#814E00"/>
<stop offset="1" stop-color="#C07F00"/>
</linearGradient>
<linearGradient id="paint1_linear_128_7683" x1="84.4671" y1="1404.06" x2="82.1869" y2="1415.19" gradientUnits="userSpaceOnUse">
<stop stop-color="#814E00"/>
<stop offset="1" stop-color="#C07F00"/>
</linearGradient>
<linearGradient id="paint2_linear_128_7683" x1="138.44" y1="1306.04" x2="136.124" y2="1317.35" gradientUnits="userSpaceOnUse">
<stop stop-color="#814E00"/>
<stop offset="1" stop-color="#C07F00"/>
</linearGradient>
<linearGradient id="paint3_linear_128_7683" x1="287.763" y1="1121.53" x2="285.409" y2="1133.03" gradientUnits="userSpaceOnUse">
<stop stop-color="#814E00"/>
<stop offset="1" stop-color="#C07F00"/>
</linearGradient>
<linearGradient id="paint4_linear_128_7683" x1="251.807" y1="1343.02" x2="249.466" y2="1356.27" gradientUnits="userSpaceOnUse">
<stop stop-color="#814E00"/>
<stop offset="1" stop-color="#C07F00"/>
</linearGradient>
<linearGradient id="paint5_linear_128_7683" x1="386.153" y1="1056.37" x2="383.713" y2="1070.18" gradientUnits="userSpaceOnUse">
<stop stop-color="#814E00"/>
<stop offset="1" stop-color="#C07F00"/>
</linearGradient>
<linearGradient id="paint6_linear_128_7683" x1="391.983" y1="1300.23" x2="389.444" y2="1314.6" gradientUnits="userSpaceOnUse">
<stop stop-color="#814E00"/>
<stop offset="1" stop-color="#C07F00"/>
</linearGradient>
<linearGradient id="paint7_linear_128_7683" x1="208.807" y1="1312.03" x2="206.201" y2="1326.77" gradientUnits="userSpaceOnUse">
<stop stop-color="#814E00"/>
<stop offset="1" stop-color="#C07F00"/>
</linearGradient>
<linearGradient id="paint8_linear_128_7683" x1="458.173" y1="1039.24" x2="441.01" y2="1119.12" gradientUnits="userSpaceOnUse">
<stop stop-color="#814E00"/>
<stop offset="1" stop-color="#C07F00"/>
</linearGradient>
<linearGradient id="paint9_linear_128_7683" x1="416.799" y1="1030.41" x2="394.961" y2="1125.94" gradientUnits="userSpaceOnUse">
<stop stop-color="#814E00"/>
<stop offset="1" stop-color="#C07F00"/>
</linearGradient>
<linearGradient id="paint10_linear_128_7683" x1="113.458" y1="1310.03" x2="91.342" y2="1407.57" gradientUnits="userSpaceOnUse">
<stop stop-color="#814E00"/>
<stop offset="1" stop-color="#C07F00"/>
</linearGradient>
<linearGradient id="paint11_linear_128_7683" x1="51.614" y1="1322.9" x2="34.5741" y2="1397.79" gradientUnits="userSpaceOnUse">
<stop stop-color="#814E00"/>
<stop offset="1" stop-color="#C07F00"/>
</linearGradient>
<linearGradient id="paint12_linear_128_7683" x1="79.5055" y1="1279.75" x2="75.6556" y2="1300.48" gradientUnits="userSpaceOnUse">
<stop stop-color="#814E00"/>
<stop offset="1" stop-color="#C07F00"/>
</linearGradient>
<linearGradient id="paint13_linear_128_7683" x1="369.995" y1="1128.63" x2="368.492" y2="1137.93" gradientUnits="userSpaceOnUse">
<stop stop-color="#814E00"/>
<stop offset="1" stop-color="#C07F00"/>
</linearGradient>
<linearGradient id="paint14_linear_128_7683" x1="267.358" y1="1354.19" x2="245.68" y2="1451.5" gradientUnits="userSpaceOnUse">
<stop stop-color="#814E00"/>
<stop offset="1" stop-color="#C07F00"/>
</linearGradient>
<linearGradient id="paint15_linear_128_7683" x1="441.841" y1="1320.24" x2="407.497" y2="1470.1" gradientUnits="userSpaceOnUse">
<stop stop-color="#814E00"/>
<stop offset="1" stop-color="#C07F00"/>
</linearGradient>
<linearGradient id="paint16_linear_128_7683" x1="300.891" y1="1297.87" x2="295.204" y2="1328.53" gradientUnits="userSpaceOnUse">
<stop stop-color="#814E00"/>
<stop offset="1" stop-color="#C07F00"/>
</linearGradient>
<linearGradient id="paint17_linear_128_7683" x1="458.355" y1="1037.97" x2="439.698" y2="1131.63" gradientUnits="userSpaceOnUse">
<stop stop-color="#814E00"/>
<stop offset="1" stop-color="#C07F00"/>
</linearGradient>
<linearGradient id="paint18_linear_128_7683" x1="458.355" y1="1037.97" x2="439.698" y2="1131.63" gradientUnits="userSpaceOnUse">
<stop stop-color="#814E00"/>
<stop offset="1" stop-color="#C07F00"/>
</linearGradient>
<linearGradient id="paint19_linear_128_7683" x1="458.355" y1="1037.97" x2="439.698" y2="1131.63" gradientUnits="userSpaceOnUse">
<stop stop-color="#814E00"/>
<stop offset="1" stop-color="#C07F00"/>
</linearGradient>
<linearGradient id="paint20_linear_128_7683" x1="510.528" y1="1157.36" x2="490.959" y2="1263.28" gradientUnits="userSpaceOnUse">
<stop stop-color="#814E00"/>
<stop offset="1" stop-color="#C07F00"/>
</linearGradient>
<linearGradient id="paint21_linear_128_7683" x1="376.958" y1="1026.34" x2="355.901" y2="1131.25" gradientUnits="userSpaceOnUse">
<stop stop-color="#814E00"/>
<stop offset="1" stop-color="#C07F00"/>
</linearGradient>
<linearGradient id="paint22_linear_128_7683" x1="77.574" y1="1281.58" x2="53.4071" y2="1399.94" gradientUnits="userSpaceOnUse">
<stop stop-color="#814E00"/>
<stop offset="1" stop-color="#C07F00"/>
</linearGradient>
<linearGradient id="paint23_linear_128_7683" x1="77.574" y1="1281.58" x2="53.4071" y2="1399.94" gradientUnits="userSpaceOnUse">
<stop stop-color="#814E00"/>
<stop offset="1" stop-color="#C07F00"/>
</linearGradient>
<linearGradient id="paint24_linear_128_7683" x1="77.574" y1="1281.58" x2="53.4071" y2="1399.94" gradientUnits="userSpaceOnUse">
<stop stop-color="#814E00"/>
<stop offset="1" stop-color="#C07F00"/>
</linearGradient>
<linearGradient id="paint25_linear_128_7683" x1="265.794" y1="1013.25" x2="204.842" y2="1310.56" gradientUnits="userSpaceOnUse">
<stop stop-color="#814E00"/>
<stop offset="1" stop-color="#C07F00"/>
</linearGradient>
<linearGradient id="paint26_linear_128_7683" x1="265.794" y1="1013.25" x2="204.842" y2="1310.56" gradientUnits="userSpaceOnUse">
<stop stop-color="#814E00"/>
<stop offset="1" stop-color="#C07F00"/>
</linearGradient>
<linearGradient id="paint27_linear_128_7683" x1="157.307" y1="1117.06" x2="120.502" y2="1299.36" gradientUnits="userSpaceOnUse">
<stop stop-color="#814E00"/>
<stop offset="1" stop-color="#C07F00"/>
</linearGradient>
<linearGradient id="paint28_linear_128_7683" x1="399.811" y1="1071.53" x2="342.621" y2="1350.99" gradientUnits="userSpaceOnUse">
<stop stop-color="#814E00"/>
<stop offset="1" stop-color="#C07F00"/>
</linearGradient>
<linearGradient id="paint29_linear_128_7683" x1="454.934" y1="1076.04" x2="399.739" y2="1346.27" gradientUnits="userSpaceOnUse">
<stop stop-color="#814E00"/>
<stop offset="1" stop-color="#C07F00"/>
</linearGradient>
<linearGradient id="paint30_linear_128_7683" x1="378.99" y1="1358.73" x2="358.623" y2="1463.45" gradientUnits="userSpaceOnUse">
<stop stop-color="#814E00"/>
<stop offset="1" stop-color="#C07F00"/>
</linearGradient>
<linearGradient id="paint31_linear_128_7683" x1="439.895" y1="1078.5" x2="362.193" y2="1461.17" gradientUnits="userSpaceOnUse">
<stop stop-color="#814E00"/>
<stop offset="1" stop-color="#C07F00"/>
</linearGradient>
<linearGradient id="paint32_linear_128_7683" x1="243.2" y1="1351.74" x2="223.559" y2="1447.66" gradientUnits="userSpaceOnUse">
<stop stop-color="#814E00"/>
<stop offset="1" stop-color="#C07F00"/>
</linearGradient>
<linearGradient id="paint33_linear_128_7683" x1="243.2" y1="1351.74" x2="223.559" y2="1447.66" gradientUnits="userSpaceOnUse">
<stop stop-color="#814E00"/>
<stop offset="1" stop-color="#C07F00"/>
</linearGradient>
<linearGradient id="paint34_linear_128_7683" x1="295.182" y1="1057.4" x2="217.497" y2="1440.42" gradientUnits="userSpaceOnUse">
<stop stop-color="#814E00"/>
<stop offset="1" stop-color="#C07F00"/>
</linearGradient>
<linearGradient id="paint35_linear_128_7683" x1="339.141" y1="1062.29" x2="281.419" y2="1346.02" gradientUnits="userSpaceOnUse">
<stop stop-color="#814E00"/>
<stop offset="1" stop-color="#C07F00"/>
</linearGradient>
<linearGradient id="paint36_linear_128_7683" x1="530.257" y1="1094.22" x2="486.752" y2="1309.62" gradientUnits="userSpaceOnUse">
<stop stop-color="#814E00"/>
<stop offset="1" stop-color="#C07F00"/>
</linearGradient>
<linearGradient id="paint37_linear_128_7683" x1="424.98" y1="1317.62" x2="393.861" y2="1469.73" gradientUnits="userSpaceOnUse">
<stop stop-color="#814E00"/>
<stop offset="1" stop-color="#C07F00"/>
</linearGradient>
<linearGradient id="paint38_linear_128_7683" x1="524.705" y1="1331.58" x2="494.897" y2="1481.45" gradientUnits="userSpaceOnUse">
<stop stop-color="#814E00"/>
<stop offset="1" stop-color="#C07F00"/>
</linearGradient>
<linearGradient id="paint39_linear_128_7683" x1="524.705" y1="1331.58" x2="494.897" y2="1481.45" gradientUnits="userSpaceOnUse">
<stop stop-color="#814E00"/>
<stop offset="1" stop-color="#C07F00"/>
</linearGradient>
<linearGradient id="paint40_linear_128_7683" x1="450.898" y1="1273.21" x2="410.629" y2="1470.11" gradientUnits="userSpaceOnUse">
<stop stop-color="#814E00"/>
<stop offset="1" stop-color="#C07F00"/>
</linearGradient>
<linearGradient id="paint41_linear_128_7683" x1="352.387" y1="1310.47" x2="323.51" y2="1456.47" gradientUnits="userSpaceOnUse">
<stop stop-color="#814E00"/>
<stop offset="1" stop-color="#C07F00"/>
</linearGradient>
<linearGradient id="paint42_linear_128_7683" x1="352.387" y1="1310.47" x2="323.51" y2="1456.47" gradientUnits="userSpaceOnUse">
<stop stop-color="#814E00"/>
<stop offset="1" stop-color="#C07F00"/>
</linearGradient>
<linearGradient id="paint43_linear_128_7683" x1="551.656" y1="1290.98" x2="513.462" y2="1482.04" gradientUnits="userSpaceOnUse">
<stop stop-color="#814E00"/>
<stop offset="1" stop-color="#C07F00"/>
</linearGradient>
</defs>
</svg>
