<svg width="72" height="72" viewBox="0 0 72 72" fill="none" xmlns="http://www.w3.org/2000/svg">
<path d="M46.7984 32.4004C46.7984 35.2648 45.6606 38.0118 43.6352 40.0372C41.6098 42.0626 38.8628 43.2004 35.9984 43.2004C33.1341 43.2004 30.3871 42.0626 28.3617 40.0372C26.3363 38.0118 25.1984 35.2648 25.1984 32.4004C25.1984 29.5361 26.3363 26.7891 28.3617 24.7637C30.3871 22.7383 33.1341 21.6004 35.9984 21.6004C38.8628 21.6004 41.6098 22.7383 43.6352 24.7637C45.6606 26.7891 46.7984 29.5361 46.7984 32.4004ZM43.1984 32.4004C43.1984 30.4909 42.4399 28.6595 41.0896 27.3093C39.7393 25.959 37.908 25.2004 35.9984 25.2004C34.0889 25.2004 32.2575 25.959 30.9073 27.3093C29.557 28.6595 28.7984 30.4909 28.7984 32.4004C28.7984 34.31 29.557 36.1413 30.9073 37.4916C32.2575 38.8418 34.0889 39.6004 35.9984 39.6004C37.908 39.6004 39.7393 38.8418 41.0896 37.4916C42.4399 36.1413 43.1984 34.31 43.1984 32.4004ZM53.8184 50.2384C58.5449 45.5095 61.2 39.0972 61.2 32.4112C61.2 25.7253 58.5449 19.3129 53.8184 14.584C51.4788 12.2429 48.7009 10.3856 45.6432 9.11853C42.5856 7.85141 39.3082 7.19922 35.9984 7.19922C32.6886 7.19922 29.4113 7.85141 26.3537 9.11853C23.296 10.3856 20.518 12.2429 18.1784 14.584C13.452 19.3129 10.7969 25.7253 10.7969 32.4112C10.7969 39.0972 13.452 45.5095 18.1784 50.2384L23.654 55.6348L31.0088 62.7808L31.4876 63.2056C34.2776 65.4664 38.3636 65.3224 40.9916 62.7808L49.7576 54.2488L53.8184 50.2384ZM20.7164 17.122C22.723 15.1146 25.1054 13.5222 27.7275 12.4357C30.3496 11.3492 33.1601 10.79 35.9984 10.79C38.8367 10.79 41.6472 11.3492 44.2694 12.4357C46.8915 13.5222 49.2739 15.1146 51.2804 17.122C55.2214 21.0656 57.4873 26.3788 57.6054 31.9528C57.7234 37.5268 55.6845 42.9311 51.914 47.038L51.2804 47.7004L46.5248 52.3948L38.4968 60.2032L38.1584 60.4912C37.5356 60.9597 36.7772 61.2128 35.9978 61.2121C35.2185 61.2115 34.4605 60.9572 33.8384 60.4876L33.5036 60.1996L22.7756 49.7416L20.7164 47.7004L20.0828 47.0416C16.3124 42.9347 14.2734 37.5304 14.3915 31.9564C14.5096 26.3824 16.7755 21.0656 20.7164 17.122Z" fill="white"/>
</svg>
