<svg width="117" height="100" viewBox="0 0 117 100" fill="none" xmlns="http://www.w3.org/2000/svg">
<path d="M71.5352 36.2741L63.8595 28.8385L63.8148 28.8817L46.009 11.6328L42.8851 14.6589L46.009 17.6851L66.8048 37.8304L58.0134 46.3467L37.2176 26.2014L34.0938 29.2275L58.0134 52.399L69.884 40.8997L70.1964 41.3752C71.8476 43.7097 72.6955 46.4764 72.6955 49.3728C72.6955 53.1771 71.1782 56.7652 68.3667 59.4455L58.0134 69.5181L47.6155 59.4455C44.8487 56.7652 43.2868 53.1771 43.2868 49.3728C43.2868 47.6436 43.5991 45.9576 44.2239 44.3581L40.8769 41.1159C39.5828 43.6664 38.8688 46.5196 38.8688 49.3728C38.8688 54.3011 40.8769 58.97 44.4917 62.4716L58.0134 75.5704L71.5352 62.4716C75.1499 58.97 77.1581 54.3011 77.1581 49.3728C77.1581 46.9519 76.6672 44.5743 75.7301 42.3263C74.7483 40.0783 73.3649 38.0465 71.5352 36.2741Z" fill="white"/>
<path d="M58.0145 0.00390625L54.8906 3.03003L58.0145 6.05614L78.8103 26.2014L81.9342 23.1753L58.0145 0.00390625Z" fill="white"/>
<path d="M7.22946 99.0456H0V98.6133C0.35701 98.6133 0.624768 98.5701 0.847899 98.5269C1.07103 98.4404 1.24954 98.354 1.38341 98.2675C1.51729 98.1378 1.60655 98.0081 1.65117 97.8784C1.6958 97.7487 1.74042 97.5758 1.74042 97.4029V77.6467C1.74042 77.517 1.6958 77.3873 1.65117 77.2576C1.60655 77.1279 1.51729 76.9982 1.38341 76.8685C1.24954 76.7388 1.07103 76.6524 0.847899 76.5659C0.624768 76.4794 0.35701 76.4362 0 76.4362V76.0039H5.53366V88.1948C5.71216 87.8922 5.89067 87.6328 6.15843 87.3735C6.38156 87.1141 6.64931 86.8547 6.9617 86.6385C7.27408 86.4224 7.63109 86.2062 8.03273 86.0333C8.43437 85.8604 8.88063 85.7307 9.37152 85.6443C10.0855 85.5146 10.7103 85.5146 11.2458 85.601C11.7813 85.6875 12.2722 85.8172 12.7185 86.0766C13.1201 86.2927 13.4771 86.5953 13.7895 86.9412C14.1019 87.287 14.325 87.6761 14.5035 88.1084C14.682 88.5407 14.8159 89.0162 14.9052 89.4917C14.9944 89.9673 15.0391 90.486 15.0391 90.9616V97.4461C15.0391 97.5758 15.0391 97.7055 15.0837 97.8352C15.1283 97.9649 15.2176 98.1378 15.3068 98.2243C15.3961 98.3107 15.5746 98.4404 15.7977 98.5269C16.0208 98.6133 16.3332 98.6566 16.6902 98.6566V99.0889H9.6839V98.6566C10.0409 98.6566 10.3087 98.6133 10.5318 98.5701C10.7549 98.5269 10.9334 98.3972 11.0673 98.3107C11.2012 98.181 11.2904 98.0513 11.3351 97.9217C11.3797 97.792 11.4243 97.619 11.4243 97.4461V90.2267C11.4243 89.5782 11.3351 89.0594 11.2012 88.6271C11.0673 88.1948 10.8442 87.849 10.5764 87.5896C10.3087 87.3302 10.0409 87.1573 9.6839 87.0709C9.32689 86.9844 8.96988 86.9844 8.61287 87.0709C8.07736 87.2005 7.63109 87.4167 7.27408 87.7193C6.87245 88.0219 6.56006 88.411 6.33693 88.8001C6.06917 89.2324 5.89067 89.7079 5.75679 90.2267C5.62291 90.7454 5.57828 91.3074 5.53366 91.8694V97.4029C5.53366 97.5326 5.53366 97.6623 5.57828 97.792C5.62291 97.9216 5.71216 98.0946 5.84604 98.181C5.97992 98.3107 6.15843 98.3972 6.38156 98.4836C6.60469 98.5701 6.91707 98.6133 7.27408 98.6133V99.0456H7.22946Z" fill="white"/>
<path d="M25.928 85.4277C26.5527 85.4277 27.1329 85.5142 27.6684 85.6439C28.2039 85.7736 28.6502 85.9465 29.0518 86.1194C29.4534 86.2923 29.8105 86.5085 30.1228 86.7246C30.4352 86.9408 30.6584 87.1137 30.8369 87.2866C31.1046 87.0705 31.3724 86.8976 31.6848 86.7679C31.9971 86.5949 32.3095 86.4653 32.6219 86.3788C32.9343 86.2491 33.2467 86.1626 33.5591 86.1194C33.8714 86.0762 34.1392 86.033 34.4516 85.9897L34.5855 86.3788C34.2285 86.5085 33.9607 86.7246 33.6929 87.0273C33.4698 87.2866 33.2467 87.6325 33.0682 88.0648C32.8897 88.4971 32.7558 89.0591 32.7558 89.794C32.7558 90.2263 32.7558 90.6586 32.7558 91.0909C32.7558 91.5232 32.7558 91.9987 32.7558 92.431C32.7558 92.8633 32.7558 93.2956 32.7558 93.6847C32.7558 94.0738 32.7558 94.4196 32.7558 94.7222C32.7558 95.0249 32.7558 95.2842 32.7558 95.4572C32.7558 95.6301 32.7558 95.7598 32.7558 95.803C32.7558 96.4947 32.845 97.0999 33.0235 97.5322C33.2021 97.9645 33.4252 98.3104 33.6483 98.5697C33.9161 98.8723 34.2285 99.0885 34.5855 99.2182L34.4516 99.6073C34.0499 99.6073 33.6037 99.5208 33.1128 99.3911C32.6219 99.2614 32.1756 99.0885 31.7294 98.8723C31.2831 98.6562 30.8815 98.3968 30.4798 98.0942C30.1228 97.7916 29.8105 97.4457 29.5427 97.0567C29.3642 97.3593 29.1411 97.6619 28.9179 97.9645C28.6502 98.2671 28.3378 98.5265 27.9808 98.7427C27.6238 98.9588 27.1775 99.175 26.642 99.3046C26.1511 99.4343 25.5263 99.5208 24.8569 99.5208C23.7859 99.5208 22.8041 99.3479 22.0009 98.9588C21.1976 98.5697 20.4836 98.0942 19.948 97.489C19.4125 96.8838 18.9663 96.1921 18.6985 95.4139C18.4308 94.6358 18.2969 93.8576 18.2969 93.0795C18.2969 92.4743 18.3861 91.869 18.52 91.307C18.6539 90.7451 18.877 90.1398 19.1894 89.5778C19.5018 89.0158 19.8588 88.4971 20.2604 88.0216C20.7067 87.546 21.1976 87.1137 21.7777 86.7679C22.3579 86.422 22.9826 86.1194 23.6967 85.9033C24.2768 85.5142 25.0801 85.4277 25.928 85.4277ZM25.9726 98.1374C26.5527 98.1374 27.0436 98.0077 27.4453 97.7484C27.8469 97.489 28.1593 97.1864 28.3824 96.7973C28.6055 96.4082 28.784 96.0191 28.8733 95.6301C28.9626 95.1978 29.0518 94.8519 29.0964 94.5493L29.1857 89.9237C29.1857 89.7508 29.1411 89.5346 29.0964 89.3185C29.0518 89.0591 28.9626 88.8429 28.8733 88.5403C28.784 88.2809 28.6502 88.0215 28.5163 87.7622C28.3824 87.5028 28.2039 87.2434 27.9361 87.0705C27.713 86.8543 27.4453 86.6814 27.1329 86.5517C26.8205 86.422 26.4635 86.3356 26.0172 86.3356C25.3925 86.3356 24.8123 86.5085 24.3214 86.8111C23.8305 87.1137 23.3843 87.546 23.0273 88.0648C22.6702 88.5835 22.4025 89.232 22.1794 89.9237C22.0009 90.6154 21.867 91.3935 21.867 92.1717C21.867 93.2092 22.0009 94.117 22.224 94.8519C22.4471 95.5868 22.7595 96.2353 23.1611 96.7108C23.5628 97.1864 23.9644 97.5754 24.4553 97.7916C24.9462 98.051 25.4817 98.1374 25.9726 98.1374Z" fill="white"/>
<path d="M40.2095 99.3048C39.6294 99.3048 39.1385 99.3048 38.7369 99.2615C38.3352 99.2183 38.0675 99.1751 37.7997 99.1319C37.5766 99.0886 37.3535 99.0454 37.2196 99.0022C37.0857 98.9589 36.9072 98.9589 36.7733 98.9589C36.8626 98.6995 36.9072 98.4402 36.9072 98.1808C36.9518 97.9646 36.9518 97.7485 36.9518 97.5756C36.9518 97.3162 36.9072 97.0568 36.8626 96.7974C36.8179 96.538 36.7733 96.3219 36.6841 96.0625L37.1303 96.0193C37.3088 96.4083 37.5766 96.7542 37.9336 97.0568C38.2906 97.3594 38.6923 97.6188 39.1385 97.7917C39.5848 98.0079 40.031 98.1376 40.5219 98.2672C41.0128 98.3537 41.4591 98.4402 41.8607 98.4402C42.3962 98.4402 42.8425 98.3537 43.2888 98.224C43.6904 98.0943 44.0474 97.9214 44.3152 97.662C44.5829 97.4459 44.8061 97.1433 44.9846 96.8406C45.1631 96.538 45.2077 96.149 45.2077 95.7599C45.2077 95.3276 45.1184 95.025 44.9399 94.7224C44.7614 94.463 44.5383 94.2468 44.2259 94.0739C43.9135 93.901 43.5565 93.7713 43.1549 93.7281C42.7532 93.6848 42.307 93.5984 41.8607 93.5551C41.5037 93.5119 41.1467 93.4687 40.7451 93.4255C40.3434 93.3822 39.9418 93.2958 39.5402 93.2093C39.1385 93.1228 38.7369 92.9932 38.3799 92.8202C38.0229 92.6473 37.6658 92.4312 37.3981 92.215C37.1303 91.9989 36.8626 91.653 36.7287 91.3072C36.5502 90.9613 36.4609 90.529 36.4609 90.0103C36.4609 89.405 36.5948 88.9295 36.8179 88.454C37.0411 88.0217 37.3981 87.6326 37.7997 87.33C38.2014 87.0274 38.6476 86.768 39.1831 86.5518C39.7187 86.3357 40.2542 86.206 40.7897 86.0763C41.3252 85.9466 41.9053 85.8602 42.4409 85.8169C42.9764 85.7737 43.4673 85.7305 43.9135 85.7305C44.7168 85.7305 45.3862 85.7737 45.9663 85.8602C46.5465 85.9466 47.0374 85.9898 47.439 85.9898C47.3497 86.2925 47.3051 86.5518 47.2605 86.8112C47.2159 87.0706 47.2159 87.33 47.2159 87.5029C47.2159 87.7623 47.2605 88.0217 47.3051 88.2378C47.3497 88.4972 47.3944 88.7134 47.4836 88.9727L47.0374 89.016C46.9035 88.6701 46.725 88.3675 46.5911 88.0649C46.4572 87.7623 46.2341 87.5461 45.9663 87.33C45.6986 87.1138 45.2969 86.9409 44.8061 86.8545C44.3152 86.768 43.6011 86.6815 42.7086 86.6815C42.4409 86.6815 42.1285 86.7248 41.8161 86.8112C41.5037 86.8977 41.236 87.0274 40.9682 87.2435C40.7004 87.4597 40.5219 87.6758 40.3434 87.9784C40.1649 88.2811 40.0757 88.5837 40.0757 88.9727C40.0757 89.4915 40.2095 89.8806 40.4327 90.1832C40.6558 90.4858 40.9236 90.7019 41.2806 90.8749C41.593 91.0478 41.95 91.1342 42.307 91.1775C42.664 91.2207 42.9764 91.2639 43.1995 91.2639C43.5119 91.3072 43.8689 91.3072 44.2705 91.3936C44.6722 91.4369 45.0738 91.5233 45.4754 91.6098C45.8771 91.6962 46.2787 91.8259 46.725 91.9989C47.1266 92.1718 47.4836 92.3879 47.796 92.6473C48.1084 92.9067 48.3762 93.2093 48.5547 93.5984C48.7332 93.9874 48.8224 94.4198 48.8224 94.8953C48.8224 95.5437 48.6885 96.149 48.4654 96.6245C48.2423 97.1 47.8853 97.4891 47.439 97.8349C46.9927 98.1808 46.5019 98.4402 45.9217 98.6131C45.3416 98.786 44.7614 98.9589 44.092 99.0886C43.4673 99.1751 42.7979 99.2615 42.1285 99.3048C41.4591 99.2615 40.8343 99.3048 40.2095 99.3048Z" fill="white"/>
<path d="M58.3694 85.4277C58.9941 85.4277 59.5743 85.5142 60.1098 85.6439C60.6453 85.7736 61.0916 85.9465 61.4932 86.1194C61.8949 86.2923 62.2519 86.5085 62.5642 86.7246C62.8766 86.9408 63.0998 87.1137 63.2783 87.2866C63.546 87.0705 63.8138 86.8976 64.1262 86.7679C64.4385 86.5949 64.7509 86.4653 65.0633 86.3788C65.3757 86.2491 65.6881 86.1626 66.0005 86.1194C66.3128 86.0762 66.5806 86.033 66.893 85.9897L67.0269 86.3788C66.6699 86.5085 66.4021 86.7246 66.1343 87.0273C65.9112 87.2866 65.6881 87.6325 65.5096 88.0648C65.3311 88.4971 65.1972 89.0591 65.1972 89.794C65.1972 90.2263 65.1972 90.6586 65.1972 91.0909C65.1972 91.5232 65.1972 91.9987 65.1972 92.431C65.1972 92.8633 65.1972 93.2956 65.1972 93.6847C65.1972 94.0738 65.1972 94.4196 65.1972 94.7222C65.1972 95.0249 65.1972 95.2842 65.1972 95.4572C65.1972 95.6301 65.1972 95.7598 65.1972 95.803C65.1972 96.4947 65.2864 97.0999 65.465 97.5322C65.6435 97.9645 65.8666 98.3104 66.0897 98.5697C66.3575 98.8723 66.6699 99.0885 67.0269 99.2182L66.893 99.6073C66.4914 99.6073 66.0451 99.5208 65.5542 99.3911C65.0633 99.2614 64.6171 99.0885 64.1708 98.8723C63.7245 98.6562 63.3229 98.3968 62.9213 98.0942C62.5642 97.7916 62.2519 97.4457 61.9841 97.0567C61.8056 97.3593 61.5825 97.6619 61.3593 97.9645C61.0916 98.2671 60.7792 98.5265 60.4222 98.7427C60.0652 98.9588 59.6189 99.175 59.0834 99.3046C58.5925 99.4343 57.9677 99.5208 57.2983 99.5208C56.2273 99.5208 55.2455 99.3479 54.4423 98.9588C53.639 98.5697 52.925 98.0942 52.3895 97.489C51.8539 96.8838 51.4077 96.1921 51.1399 95.4139C50.8722 94.6358 50.7383 93.8576 50.7383 93.0795C50.7383 92.4743 50.8275 91.869 50.9614 91.307C51.0953 90.7451 51.3184 90.1398 51.6308 89.5778C51.9432 89.0158 52.3002 88.4971 52.7018 88.0216C53.1481 87.546 53.639 87.1137 54.2191 86.7679C54.7993 86.422 55.424 86.1194 56.1381 85.9033C56.7182 85.5142 57.5215 85.4277 58.3694 85.4277ZM58.414 98.1374C58.9941 98.1374 59.485 98.0077 59.8867 97.7484C60.2883 97.489 60.6007 97.1864 60.8238 96.7973C61.047 96.4082 61.2255 96.0191 61.3147 95.6301C61.404 95.1978 61.4932 94.8519 61.5378 94.5493L61.6271 89.9237C61.6271 89.7508 61.5825 89.5346 61.5378 89.3185C61.4932 89.0591 61.404 88.8429 61.3147 88.5403C61.2255 88.2809 61.0916 88.0215 60.9577 87.7622C60.8238 87.5028 60.6453 87.2434 60.3776 87.0705C60.1544 86.8543 59.8867 86.6814 59.5743 86.5517C59.2619 86.422 58.9049 86.3356 58.4586 86.3356C57.8339 86.3356 57.2537 86.5085 56.7628 86.8111C56.2719 87.1137 55.8257 87.546 55.4687 88.0648C55.1117 88.5835 54.8439 89.232 54.6208 89.9237C54.4423 90.6154 54.3084 91.3935 54.3084 92.1717C54.3084 93.2092 54.4423 94.117 54.6654 94.8519C54.8885 95.5868 55.2009 96.2353 55.6025 96.7108C56.0042 97.1864 56.4058 97.5754 56.8967 97.7916C57.4322 98.051 57.9231 98.1374 58.414 98.1374Z" fill="white"/>
<path d="M75.5956 99.0458H68.5V98.6135C68.857 98.6135 69.1248 98.5702 69.3479 98.527C69.571 98.4406 69.7495 98.3541 69.8834 98.2676C70.0173 98.1379 70.1065 98.0082 70.1512 97.8786C70.1958 97.7489 70.2404 97.576 70.2404 97.403V87.6762C70.2404 87.5465 70.1958 87.4168 70.1512 87.2871C70.1065 87.1575 70.0173 87.0278 69.8834 86.8981C69.7495 86.7684 69.571 86.6819 69.3479 86.5955C69.1248 86.509 68.857 86.4658 68.5 86.4658V85.9902H75.5956V86.4658C75.2386 86.4658 74.9708 86.509 74.7477 86.5522C74.5245 86.6387 74.346 86.6819 74.2122 86.8116C74.0783 86.8981 73.989 87.0278 73.9444 87.2007C73.8998 87.3304 73.8552 87.5033 73.8552 87.633V90.7456C74.1675 91.3076 74.4799 91.9128 74.9262 92.5612C75.3724 93.2097 75.8187 93.8149 76.3542 94.4634C76.8897 95.1118 77.5591 95.717 78.2732 96.279C78.9872 96.8843 79.7904 97.403 80.683 97.8353V87.7194C80.683 87.5898 80.683 87.4601 80.6383 87.3304C80.5937 87.2007 80.5045 87.0278 80.4152 86.8981C80.2813 86.7684 80.1028 86.6819 79.8797 86.5955C79.6566 86.509 79.3442 86.4658 78.9872 86.4658V85.9902H86.0381V86.4658C85.6811 86.4658 85.4134 86.509 85.1902 86.5522C84.9671 86.6387 84.7886 86.6819 84.6547 86.8116C84.5208 86.8981 84.4316 87.0278 84.387 87.2007C84.3423 87.3304 84.2977 87.5033 84.2977 87.633V97.4463C84.2977 97.5759 84.3423 97.7056 84.387 97.8353C84.4316 97.965 84.5208 98.0947 84.6547 98.2244C84.7886 98.3541 84.9671 98.4406 85.1902 98.527C85.4134 98.6135 85.6811 98.6567 86.0381 98.6567V99.089H80.683C80.0582 98.9593 79.4334 98.6999 78.8087 98.3541C78.1839 98.0083 77.5591 97.6192 76.979 97.1436C76.3988 96.7113 75.8187 96.2358 75.2832 95.7603C74.7477 95.2847 74.2568 94.8092 73.8552 94.3769V97.3598C73.8552 97.4895 73.8552 97.6192 73.8998 97.7489C73.9444 97.8786 74.0337 98.0515 74.1229 98.1379C74.2122 98.2244 74.4353 98.3541 74.6584 98.4406C74.8816 98.527 75.1939 98.5702 75.551 98.5702V99.0458H75.5956Z" fill="white"/>
<path d="M95.5881 85.4277C96.2129 85.4277 96.793 85.5142 97.3285 85.6439C97.8641 85.7736 98.3103 85.9465 98.712 86.1194C99.1136 86.2923 99.4706 86.5085 99.783 86.7246C100.095 86.9408 100.319 87.1137 100.497 87.2866C100.765 87.0705 101.033 86.8976 101.345 86.7679C101.657 86.5949 101.97 86.4653 102.282 86.3788C102.594 86.2491 102.907 86.1626 103.219 86.1194C103.532 86.0762 103.799 86.033 104.112 85.9897L104.246 86.3788C103.889 86.5085 103.621 86.7246 103.353 87.0273C103.13 87.2866 102.907 87.6325 102.728 88.0648C102.55 88.4971 102.416 89.0591 102.416 89.794C102.416 90.2263 102.416 90.6586 102.416 91.0909C102.416 91.5232 102.416 91.9987 102.416 92.431C102.416 92.8633 102.416 93.2956 102.416 93.6847C102.416 94.0738 102.416 94.4196 102.416 94.7222C102.416 95.0249 102.416 95.2842 102.416 95.4572C102.416 95.6301 102.416 95.7598 102.416 95.803C102.416 96.4947 102.505 97.0999 102.684 97.5322C102.862 97.9645 103.085 98.3104 103.308 98.5697C103.576 98.8723 103.889 99.0885 104.246 99.2182L104.112 99.6073C103.71 99.6073 103.264 99.5208 102.773 99.3911C102.282 99.2614 101.836 99.0885 101.39 98.8723C100.943 98.6562 100.542 98.3968 100.14 98.0942C99.783 97.7916 99.4706 97.4457 99.2029 97.0567C99.0243 97.3593 98.8012 97.6619 98.5781 97.9645C98.3103 98.2671 97.9979 98.5265 97.6409 98.7427C97.2839 98.9588 96.8377 99.175 96.3021 99.3046C95.8113 99.4343 95.1865 99.5208 94.5171 99.5208C93.4461 99.5208 92.4643 99.3479 91.661 98.9588C90.8577 98.5697 90.1437 98.0942 89.6082 97.489C89.0727 96.8838 88.6264 96.1921 88.3587 95.4139C88.0909 94.6358 87.957 93.8576 87.957 93.0795C87.957 92.4743 88.0463 91.869 88.1802 91.307C88.314 90.7451 88.5372 90.1398 88.8496 89.5778C89.1619 89.0158 89.5189 88.4971 89.9206 88.0216C90.3668 87.546 90.8577 87.1137 91.4379 86.7679C92.018 86.422 92.6428 86.1194 93.3568 85.9033C93.9369 85.5142 94.7402 85.4277 95.5881 85.4277ZM95.6327 98.1374C96.2129 98.1374 96.7038 98.0077 97.1054 97.7484C97.5071 97.489 97.8194 97.1864 98.0426 96.7973C98.2657 96.4082 98.4442 96.0191 98.5335 95.6301C98.6227 95.1978 98.712 94.8519 98.7566 94.5493L98.8458 89.9237C98.8458 89.7508 98.8012 89.5346 98.7566 89.3185C98.712 89.0591 98.6227 88.8429 98.5335 88.5403C98.4442 88.2809 98.3103 88.0215 98.1764 87.7622C98.0426 87.5028 97.8641 87.2434 97.5963 87.0705C97.3732 86.8543 97.1054 86.6814 96.793 86.5517C96.4806 86.422 96.1236 86.3356 95.6774 86.3356C95.0526 86.3356 94.4725 86.5085 93.9816 86.8111C93.4907 87.1137 93.0444 87.546 92.6874 88.0648C92.3304 88.5835 92.0626 89.232 91.8395 89.9237C91.661 90.6154 91.5271 91.3935 91.5271 92.1717C91.5271 93.2092 91.661 94.117 91.8841 94.8519C92.1073 95.5868 92.4197 96.2353 92.8213 96.7108C93.2229 97.1864 93.6246 97.5754 94.1155 97.7916C94.6063 98.051 95.0972 98.1374 95.6327 98.1374Z" fill="white"/>
<path d="M105.944 83.2227C105.453 83.2227 104.962 83.2227 104.516 83.2227C104.07 83.2227 103.579 83.2227 103.133 83.2227C102.865 83.2227 102.597 83.1362 102.508 82.8768C102.419 82.5742 102.597 82.3581 102.82 82.2284C104.784 81.0612 106.301 79.4184 107.729 77.7324C108.042 77.3433 108.265 76.8678 108.532 76.4787C108.622 76.349 108.8 76.1761 108.979 76.1329C109.291 76.0032 109.559 76.1761 109.603 76.522C109.603 76.911 109.603 77.3433 109.559 77.7324C109.514 78.7267 109.47 79.721 109.425 80.7153C109.425 80.8018 109.425 80.8882 109.425 81.0179C109.559 81.0179 109.693 81.0179 109.782 81.0179C111.701 81.0179 113.575 81.0179 115.494 81.0179C115.583 81.0179 115.717 81.0179 115.806 81.0179C116.03 81.0611 116.119 81.1476 116.074 81.3638C115.94 81.8825 115.762 82.4445 115.583 82.9633C115.494 83.2227 115.316 83.2227 115.092 83.2227C113.307 83.2227 111.522 83.2227 109.693 83.2227C109.559 83.2227 109.47 83.2227 109.291 83.2227C109.246 83.655 109.246 84.044 109.246 84.4331C109.202 87.6322 109.202 90.8744 109.202 94.0735C109.202 94.6355 109.336 95.1542 109.514 95.7162C109.737 96.4944 110.228 97.0996 111.121 97.359C110.898 98.0939 110.719 98.7856 110.496 99.5205C109.068 99.5637 107.952 99.0449 106.97 98.1371C106.39 97.6183 105.944 97.0131 105.81 96.235C105.766 96.0188 105.766 95.8459 105.766 95.6298C105.855 91.6093 105.899 87.6321 105.989 83.6117C105.944 83.5253 105.944 83.3956 105.944 83.2227Z" fill="white"/>
</svg>
