<svg width="1500" height="750" viewBox="0 0 1651 805" fill="none" xmlns="http://www.w3.org/2000/svg">
<g style="mix-blend-mode:luminosity">
<path d="M995.005 552.894L982.364 566.865L969.722 574.184V591.483L963.734 604.124V617.431L969.722 624.749H982.364L989.682 617.431V604.124L998.332 582.833L1002.32 566.865V552.894L998.332 546.24L995.005 552.894Z" stroke="#814E00" stroke-opacity="0.48" stroke-width="2.1" stroke-dasharray="24.15 24.15"/>
<path d="M662.341 302.064L670.99 298.737L680.97 284.1V274.12L690.95 268.132L704.257 258.817L718.229 264.805L738.854 252.164L752.826 250.168L768.794 252.164L782.766 246.176L788.754 258.817L782.766 264.805L798.069 274.12H806.718L816.698 284.1L830.004 288.757L836.658 284.1V274.12H851.295L868.594 284.1H885.892H901.86L910.509 302.064L914.501 312.044L921.82 326.015L927.143 339.322V349.967L936.457 357.951L941.78 373.919L952.425 381.238L961.74 392.549L965.732 403.194L973.051 407.851L985.026 410.512L1007.65 403.194V419.827L997.668 436.46L988.353 451.098L975.712 463.074L961.74 479.042L949.764 492.348L941.78 506.985L945.772 524.949L952.425 533.599V548.236V561.543L945.772 572.853L933.131 576.18L927.143 584.829L918.493 594.809L921.82 611.442L918.493 618.761L909.179 625.414L904.521 631.402V638.056L902.525 646.04L886.558 665.334L871.92 675.314L859.279 681.302L852.626 675.314L843.976 681.302H832.666L828.008 675.314V665.334L822.686 653.358L812.04 640.717V631.402L808.048 611.442L802.061 594.809L793.411 581.503V569.527L798.069 558.216L802.061 544.909V533.599V524.949L798.069 514.969L793.411 500.332L788.754 495.01L782.766 485.695V475.05V459.082V451.098L773.451 443.779H760.81L755.487 436.46L746.838 431.803L735.527 436.46L721.555 440.452H704.257L686.958 443.779L675.648 440.452L659.014 427.146L654.357 419.827L648.369 410.512L643.046 403.194L639.72 398.537V389.887L635.062 383.234L639.72 375.25V361.278V354.625V346.641V337.326L648.369 326.015L654.357 312.044L662.341 302.064Z" stroke="#808080" stroke-opacity="0.48" stroke-width="2.1" stroke-dasharray="24.15 24.15"/>
<path d="M1465.39 731.203L1470.05 719.893H1480.7L1486.02 723.885L1480.7 731.203L1470.05 735.195L1465.39 731.203Z" stroke="#808080" stroke-opacity="0.48" stroke-width="2.1" stroke-dasharray="24.15 24.15"/>
<path d="M1400.85 667.331L1384.22 674.649H1362.26L1352.95 679.972L1342.97 685.295L1338.31 679.972V674.649L1342.97 660.012V640.052V619.427L1349.62 607.451L1373.58 593.479H1384.22L1400.85 576.846L1405.51 570.858L1414.16 561.543L1428.13 556.886L1437.45 561.543L1442.1 554.89L1450.75 548.902L1466.72 544.245C1481.09 542.116 1479.81 548.237 1477.37 551.563L1470.05 561.543L1477.37 566.866L1494.67 576.846L1506.64 561.543V551.563L1513.96 540.918L1517.29 551.563L1525.94 561.543V579.507L1531.92 587.491L1541.9 607.451L1551.88 619.427V631.403L1546.56 653.359L1536.58 667.331L1525.94 674.649L1517.29 691.283L1506.64 699.932H1496.66L1492 704.589L1485.35 708.581L1477.37 704.589H1466.72L1458.74 699.932V691.283L1455.41 685.295L1448.76 674.649L1442.1 679.972L1434.12 667.331L1425.47 664.004H1418.15L1400.85 667.331Z" stroke="#808080" stroke-opacity="0.48" stroke-width="2.1" stroke-dasharray="24.15 24.15"/>
<path d="M1575.17 753.159H1560.54C1560.54 748.369 1565.86 742.292 1568.52 739.852L1585.15 731.203L1599.79 726.546L1612.43 717.896V726.546L1604.45 731.203L1599.79 739.852H1593.14L1585.15 747.836L1575.17 753.159Z" stroke="#808080" stroke-opacity="0.48" stroke-width="2.1" stroke-dasharray="24.15 24.15"/>
<path d="M1631.06 722.552H1622.41L1625.74 713.238V705.919L1635.05 701.927L1639.04 687.955L1643.04 697.935L1649.02 705.919L1639.04 713.238L1631.06 722.552Z" stroke="#808080" stroke-opacity="0.48" stroke-width="2.1" stroke-dasharray="24.15 24.15"/>
<path d="M434.132 799.732L416.168 789.752H403.526L386.228 782.433L377.578 768.461L366.268 752.493L370.925 746.505V737.856L366.268 729.207L356.953 717.231V705.255L353.627 673.319L348.969 644.71V618.096V593.479L335.663 578.176L319.029 567.531L308.384 552.894L297.739 535.595L288.424 513.639L281.105 510.313V495.01L288.424 489.022L281.105 480.373L288.424 466.401L297.739 451.764L302.396 445.11V435.796L297.739 419.828V415.17L302.396 419.828L308.384 415.17L315.037 407.186H322.356L329.009 398.537H335.663L338.989 410.513L335.663 419.828L329.009 410.513L343.647 401.864H353.627L359.615 407.186L370.26 410.513L382.901 407.186L390.885 410.513L406.188 429.142L412.841 435.796H423.486L438.789 440.453L445.442 451.764L450.099 461.744V469.728L458.083 474.385L465.402 480.373H474.717L479.374 483.699L488.689 489.022H502.661L513.971 495.01L526.613 502.329L533.931 505.655V513.639V524.95L523.286 542.249L513.971 552.894V567.531V588.156L502.661 607.451L493.346 610.778L479.374 618.096L469.394 627.411V636.726L465.402 654.689L454.091 673.319L445.442 681.303H437.458H430.14L434.132 688.621V699.267L425.482 705.255H416.168V717.231H403.526V724.549L408.849 729.207L403.526 741.182V746.505V752.493L408.849 760.477V768.461L403.526 776.445L408.849 782.433L403.526 799.732H412.841L420.825 803.058L434.132 799.732Z" stroke="#808080" stroke-opacity="0.48" stroke-width="2.1" stroke-dasharray="24.15 24.15"/>
<path d="M1547.23 522.288L1561.86 536.26L1557.21 540.917L1547.23 536.26L1535.92 526.28L1529.26 522.288H1521.94L1517.29 529.607L1503.98 526.28L1496.66 522.288H1490.01L1496.66 512.308L1490.01 506.32L1471.38 499.002L1461.4 495.675V489.022L1454.75 477.711H1471.38V483.034L1478.7 495.675L1485.35 489.022L1496.66 483.034L1508.64 489.022L1529.26 495.675L1543.24 506.32L1547.23 522.288Z" stroke="#808080" stroke-opacity="0.48" stroke-width="2.1" stroke-dasharray="24.15 24.15"/>
<path d="M1358.94 447.107L1345.63 457.087L1332.33 463.74L1334.99 479.043L1341.64 489.688L1358.94 496.341H1372.25V489.688L1382.23 475.716L1386.22 470.393V461.079L1382.23 453.095L1386.22 441.784L1382.23 435.131H1372.25L1358.94 447.107Z" stroke="#808080" stroke-opacity="0.48" stroke-width="2.1" stroke-dasharray="24.15 24.15"/>
<path d="M1348.96 512.309L1363.6 520.958L1356.28 524.95L1341.64 520.958H1330.33H1317.02L1313.7 512.309H1325.01H1336.32H1348.96Z" stroke="#808080" stroke-opacity="0.48" stroke-width="2.1" stroke-dasharray="24.15 24.15"/>
<path d="M1314.37 491.682V501.662C1314.37 509.646 1305.05 508.537 1300.39 506.985L1291.08 497.005L1282.43 478.376L1269.12 459.081L1257.81 448.436V439.121L1279.77 448.436L1286.42 459.081L1300.39 469.061V475.714L1314.37 491.682Z" stroke="#808080" stroke-opacity="0.48" stroke-width="2.1" stroke-dasharray="24.15 24.15"/>
<path d="M1386.22 378.578L1389.55 365.271C1390.88 359.948 1394.98 363.053 1396.86 365.271V378.578L1404.18 384.566L1412.17 397.207L1423.48 410.513L1428.13 423.155V437.792H1418.82L1412.17 430.473L1404.18 413.84L1396.86 397.207L1386.22 378.578Z" stroke="#808080" stroke-opacity="0.48" stroke-width="2.1" stroke-dasharray="24.15 24.15"/>
<path d="M1288.42 453.761L1282.43 435.797L1271.12 418.498V397.873L1279.1 405.857V414.506L1282.43 421.825L1288.42 429.144L1299.73 435.797L1304.38 447.108V463.075H1299.73L1288.42 453.761Z" stroke="#808080" stroke-opacity="0.48" stroke-width="2.1" stroke-dasharray="24.15 24.15"/>
<path d="M1231.2 348.637L1225.21 337.327L1204.58 340.653L1199.93 353.96L1189.28 361.279L1169.32 379.908L1166 390.553V411.178C1164.4 423.953 1155.57 421.824 1151.36 419.162L1139.38 395.21L1124.74 361.279V344.645H1116.1H1106.78V334H1096.8L1085.49 318.032L1078.17 324.02L1059.54 318.032H1042.91L1032.93 310.048L1009.64 307.387L998.997 294.745L991.679 288.758L987.021 294.745L995.005 304.06L998.997 318.032H1009.64L1016.96 327.347L1028.94 318.032L1035.59 324.02L1049.56 334V344.645L1038.92 361.279L1024.95 367.932L1009.64 376.581L995.005 384.565L983.695 395.21H969.723L963.069 384.565V372.589L955.751 361.279L943.109 348.637V337.327L923.149 314.04L917.161 298.072L909.843 304.06L901.859 282.104H913.835L917.161 266.136V251.499L905.851 255.491L891.214 251.499H875.246L866.596 234.2V228.212H858.612L850.628 234.2L854.62 243.515L850.628 251.499L841.314 246.842L844.64 240.188L833.33 234.2L828.673 216.902L816.697 209.583L799.398 197.607C791.946 190.688 794.075 198.273 796.071 202.93L804.721 212.91C811.596 218.011 824.281 228.212 820.023 228.212C815.765 228.212 816.031 238.414 816.697 243.515L804.721 228.212L786.091 212.91L776.777 206.257L760.143 212.91H750.829L744.841 223.555L730.869 234.2V246.842L714.236 251.499H698.933L686.957 243.515L691.614 212.91H718.893L724.881 206.257V192.285L714.236 180.309L730.869 176.982L744.841 168.998L763.47 154.361H770.789L776.777 148.373V135.731L784.095 129.743V138.393L792.745 135.731V126.417L786.091 121.759L776.777 126.417L766.797 121.759V104.461L796.071 82.505L816.697 67.2024L833.33 57.8877H861.939L879.238 67.2024L905.851 70.529C914.367 77.4485 909.399 81.3961 905.851 82.505H895.206L879.238 77.1823L895.206 90.4889H905.851L913.835 82.505L923.149 77.1823L927.141 70.529L938.452 77.1823L955.751 70.529H978.372L1001.66 67.2024H1016.3L1008.31 57.8877L1011.64 51.2344H1025.61L1034.93 57.8877L1048.9 51.2344L1059.54 44.5811H1074.18V37.2625L1096.14 31.9398H1110.11L1117.43 26.6172H1130.07L1142.71 31.9398H1161.34L1166 37.2625L1161.34 44.5811L1185.96 47.9078H1191.28H1203.25H1214.56H1235.85L1259.81 57.8877H1273.78H1285.09L1288.42 47.9078L1310.37 51.2344L1336.32 57.8877H1358.94H1374.24L1391.54 67.2024H1424.14L1430.13 63.2104H1446.1L1470.72 67.2024L1492.67 73.8557L1506.64 79.1783H1521.95L1531.26 89.1583H1511.97L1501.99 82.505L1492.67 89.1583L1506.64 95.8116V103.13L1492.67 113.11H1478.7C1464.86 116.836 1467.61 123.09 1470.72 125.751L1482.03 130.409L1485.35 147.707V165.671H1478.7L1461.4 147.707L1450.09 130.409L1455.41 108.453L1450.09 103.13L1442.11 108.453H1433.46H1424.14V119.763H1408.18H1384.22L1374.24 125.751L1367.59 141.719L1378.24 147.707H1388.88L1403.52 153.695H1411.5L1424.14 165.671L1433.46 174.986V182.305L1437.45 195.611L1430.13 191.619L1424.14 182.305L1414.83 168.998H1411.5L1414.83 182.305V195.611L1408.18 211.579H1397.53L1391.54 216.902L1388.88 224.886V230.874L1391.54 237.527L1403.52 246.176L1408.18 255.491L1403.52 262.81H1391.54L1388.88 250.834L1374.24 240.854L1367.59 230.874C1359.07 235.664 1356.06 232.87 1355.61 230.874L1347.63 224.886L1336.32 237.527L1347.63 246.176H1355.61L1367.59 250.834L1352.29 260.814L1367.59 274.786L1374.24 284.766L1378.24 298.737L1374.24 316.701L1367.59 330.008L1352.29 337.327L1336.32 340.653L1327.67 348.637L1319.02 340.653L1310.37 346.641L1306.38 357.287L1319.02 372.589L1327.67 387.226V403.86L1319.02 411.178L1313.03 419.162H1306.38V411.178L1295.07 403.86L1281.76 395.21H1277.11V403.86L1270.45 395.21L1265.13 379.908L1259.81 372.589L1253.15 376.581H1246.5V367.932L1241.84 357.287L1231.2 348.637Z" stroke="#808080" stroke-opacity="0.48" stroke-width="2.1" stroke-dasharray="24.15 24.15"/>
<path d="M1419.48 279.444L1416.16 270.129L1418.15 264.141L1424.14 258.153H1432.12L1441.44 252.165L1450.75 241.52L1446.76 232.871L1439.44 218.899V210.249V200.27L1448.09 206.258L1460.07 210.249L1456.74 216.903H1448.09V226.883H1454.08L1460.07 236.197V243.516L1462.73 252.165V262.811H1450.75L1443.43 270.129L1435.45 268.799H1429.46L1424.14 266.137L1420.81 268.799L1426.14 274.787L1424.14 282.771L1419.48 279.444Z" stroke="#808080" stroke-opacity="0.48" stroke-width="2.1" stroke-dasharray="24.15 24.15"/>
<path d="M1001.66 254.825L985.692 244.179V228.211L969.059 211.578V202.264L985.692 186.961L998.333 196.941L993.011 202.264H985.692V211.578L998.333 217.566H1006.98L1011.64 224.885L1001.66 228.211L1006.98 237.526L1011.64 247.506L1001.66 254.825Z" stroke="#808080" stroke-opacity="0.48" stroke-width="2.1" stroke-dasharray="24.15 24.15"/>
<path d="M898.531 221.558L883.229 226.881L873.914 213.574L877.906 201.598L891.213 190.953L898.531 201.598H909.177V190.953H921.818V201.598L933.128 208.917L943.774 221.558L933.128 226.881L916.495 221.558H898.531Z" stroke="#808080" stroke-opacity="0.48" stroke-width="2.1" stroke-dasharray="24.15 24.15"/>
<path d="M728.873 139.723L740.183 156.357L744.841 160.349L740.183 166.337L724.216 170.994H711.574L715.566 160.349V156.357L724.216 147.042L715.566 139.723V133.735V127.082H724.216L728.873 139.723Z" stroke="#808080" stroke-opacity="0.48" stroke-width="2.1" stroke-dasharray="24.15 24.15"/>
<path d="M692.281 149.038L702.927 144.381C711.443 140.655 709.58 145.934 707.584 149.038L702.927 159.018L692.281 164.341V149.038Z" stroke="#808080" stroke-opacity="0.48" stroke-width="2.1" stroke-dasharray="24.15 24.15"/>
<path d="M645.707 89.1573L660.344 84.5H676.978L684.296 89.1573L669.659 97.8066H653.691L645.707 89.1573Z" stroke="#808080" stroke-opacity="0.48" stroke-width="2.1" stroke-dasharray="24.15 24.15"/>
<path d="M523.949 83.8352L530.602 73.1899C539.651 69.4641 539.695 61.8793 538.586 58.5526L530.602 43.9154L515.965 31.9394H504.654L493.344 27.2821V19.9635H515.965L530.602 12.6448L551.228 8.65283L583.829 12.6448L603.789 5.32617H642.378H669.656L685.624 12.6448L675.644 27.2821L669.656 38.5927L657.015 43.9154L647.035 49.9033L657.015 58.5526L647.035 63.8753L628.406 69.8633L615.099 73.1899L603.789 77.8472L583.829 83.8352L565.199 93.8152L551.228 113.11H538.586L523.949 102.464V83.8352Z" stroke="#808080" stroke-opacity="0.48" stroke-width="2.1" stroke-dasharray="24.15 24.15"/>
<path d="M452.094 15.9719L439.453 27.2826L455.421 33.2705L468.062 27.2826L484.03 21.9599L513.305 15.9719L532.599 2L498.002 5.99198H474.716V15.9719H468.062H452.094Z" stroke="#808080" stroke-opacity="0.48" stroke-width="2.1" stroke-dasharray="24.15 24.15"/>
<path d="M420.824 45.2461H407.518L394.211 52.5647L407.518 60.5487H420.824H436.127L448.103 75.186V79.8433H436.127L428.143 89.1579L436.127 99.1379L452.095 103.795L462.075 94.4806V84.5006H467.397C482.301 88.2265 482.035 82.9482 480.039 79.8433L472.055 69.198L462.075 57.222L452.095 52.5647H444.111L436.127 48.5727L420.824 45.2461Z" stroke="#808080" stroke-opacity="0.48" stroke-width="2.1" stroke-dasharray="24.15 24.15"/>
<path d="M279.108 40.5898L269.128 45.2472L257.152 49.9045L261.144 57.2231L269.128 49.9045H282.435L287.758 57.2231L279.108 67.8684H291.084H299.068H309.713L321.689 65.2071L335.661 63.2111V57.2231V49.9045H331.004H325.016L319.028 45.2472L312.375 49.9045L303.725 45.2472L291.084 40.5898H279.108Z" stroke="#808080" stroke-opacity="0.48" stroke-width="2.1" stroke-dasharray="24.15 24.15"/>
<path d="M467.395 174.322L480.036 182.306L467.395 186.298H454.754L448.766 182.306L454.754 177.649L467.395 166.338V174.322Z" stroke="#808080" stroke-opacity="0.48" stroke-width="2.1" stroke-dasharray="24.15 24.15"/>
<path d="M338.988 242.185L362.275 224.221L376.912 219.564L386.226 208.253L402.194 199.604H408.182V208.253H418.162L433.465 199.604L418.162 192.951L423.485 178.979H412.174L418.162 168.333H436.792H451.429L466.066 161.015L476.046 151.7L466.066 148.373L458.748 137.728L454.756 115.107L436.792 125.087L430.138 115.107V107.788L408.182 101.135L396.872 107.788L390.218 121.76V131.075L376.912 143.051L365.601 148.373V157.023L355.621 165.007L348.968 157.023L352.96 141.055L338.988 137.728L330.339 131.075L317.032 121.76L325.681 107.788L343.645 101.135L355.621 94.4817L370.924 89.8243L380.239 84.5017L396.872 89.8243L392.88 98.4736L376.912 94.4817L386.226 79.1791H402.194L412.174 71.8604V64.5418H402.194L386.226 71.8604L380.239 64.5418L376.912 53.8965L365.601 58.5538V64.5418L355.621 71.8604V64.5418H348.968V71.8604H338.988L325.681 75.1871L317.032 71.8604L301.064 75.1871V79.1791L283.1 75.1871L264.471 64.5418H243.18H225.882L198.603 71.8604L179.974 64.5418L134.066 58.5538H114.772L88.8237 64.5418L80.1744 68.5338C75.9606 68.5338 68.3315 70.6628 71.5251 79.1791L60.8798 84.5017H47.5732C46.2425 86.4977 45.311 91.2881 52.2305 94.4817L42.2505 101.135H30.2746L24.2866 111.78L15.6373 115.107L24.2866 121.76L1 141.055L42.2505 125.087L64.8717 115.107H71.5251L92.8156 107.788L111.445 115.107L125.417 125.087L132.07 133.736C129.852 141.72 125.417 159.817 125.417 168.333C137.393 168.333 145.377 180.975 138.723 183.636C133.401 185.765 120.538 200.935 114.772 208.253L99.4689 228.878L104.126 263.476L114.772 278.113V290.754L119.429 309.383L125.417 323.355L132.07 331.339V309.383L125.417 296.742V286.762H132.07V302.065L142.715 318.698L155.357 338.658V353.961L184.631 372.59H211.245L221.224 384.566L238.523 391.219H245.176L251.164 402.53L263.14 417.832L279.774 426.482L292.415 417.832H279.774L266.467 402.53V377.247H251.164L245.176 372.59L251.164 350.634C253.604 347.086 255.156 341.053 241.85 345.311L232.535 357.953L217.232 363.275L206.587 353.961L199.269 338.658L206.587 314.041L211.245 302.065L232.535 290.754L251.164 296.742L266.467 286.762L276.447 290.754L288.423 296.742V314.041L292.415 318.698L301.064 314.041V302.065L295.742 286.762L308.383 278.113L319.028 269.464L335.661 263.476V248.838L338.988 242.185Z" stroke="#808080" stroke-opacity="0.48" stroke-width="2.1" stroke-dasharray="24.15 24.15"/>
<path d="M343.645 362.61H325.016L330.338 351.965H336.992L355.621 355.957L343.645 362.61Z" stroke="#808080" stroke-opacity="0.48" stroke-width="2.1" stroke-dasharray="24.15 24.15"/>
<path d="M297.737 332.67H275.781L281.769 337.327L293.08 343.315L303.06 350.634L323.685 347.307L317.032 343.315L297.737 332.67Z" stroke="#808080" stroke-opacity="0.48" stroke-width="2.1" stroke-dasharray="24.15 24.15"/>
<path d="M288.422 192.949H307.051L295.075 202.929L288.422 217.567L291.749 223.555L299.733 217.567L307.051 199.603H319.027V210.248L332.999 202.929V192.949H325.68L319.027 188.957L312.374 181.639H295.075L288.422 192.949Z" stroke="#814E00" stroke-opacity="0.48" stroke-width="2.1" stroke-dasharray="24.15 24.15"/>
<path d="M404.855 35.9313L437.457 41.9193L444.775 35.9313H425.481L413.505 29.9434L404.855 35.9313Z" stroke="#814E00" stroke-opacity="0.48" stroke-width="2.1" stroke-dasharray="24.15 24.15"/>
<path d="M440.783 9.98438L436.125 19.299H426.811L417.496 15.9724L426.811 9.98438H440.783Z" stroke="#814E00" stroke-opacity="0.48" stroke-width="2.1" stroke-dasharray="24.15 24.15"/>
<path d="M808.043 140.389L814.031 129.078L818.023 121.094L821.35 115.106L814.031 107.122V99.8038L828.003 95.1465L836.652 81.8398L845.967 89.1585L833.326 99.8038L836.652 111.78H859.274L867.923 115.106L859.274 121.094H845.967V129.078H836.652V140.389L828.003 146.377H821.35L808.043 151.034L801.39 146.377H787.418L796.067 140.389H808.043Z" stroke="#814E00" stroke-opacity="0.48" stroke-width="2.1" stroke-dasharray="24.15 24.15"/>
<path d="M1386.22 491.017L1392.21 475.715C1389.01 470.924 1393.54 466.178 1396.2 464.404C1396.2 461.21 1413.5 463.073 1422.15 464.404C1422.15 475.049 1409.73 471.501 1403.52 468.396L1398.86 473.053L1400.86 479.707H1410.84L1403.52 485.695L1407.51 495.009L1403.52 499.667L1398.86 491.017L1396.2 495.009V506.985L1386.22 504.989V491.017Z" stroke="#814E00" stroke-opacity="0.48" stroke-width="2.1" stroke-dasharray="24.15 24.15"/>
</g>
</svg>
